<svg width="300" height="75" viewBox="0 0 300 75" fill="none" xmlns="http://www.w3.org/2000/svg">
<rect width="300" height="75" fill="white"/>
<rect x="125" y="4" width="50" height="45.3846" rx="7.5" fill="#222222"/>
<path d="M136.759 15.9588C137.361 15.2327 138.436 15.1419 139.159 15.7319L149.386 24.2415C149.775 24.5819 150 25.0584 150 25.5577C150 26.0569 149.775 26.5334 149.386 26.8738L139.159 35.3834C138.436 35.9734 137.361 35.8827 136.759 35.1565C136.157 34.4304 136.255 33.3638 136.977 32.7511L145.632 25.5577L136.977 18.3642C136.255 17.7515 136.157 16.685 136.759 15.9588Z" fill="white"/>
<path d="M149.432 35.7692C148.491 35.7692 147.727 36.5408 147.727 37.4711C147.727 38.4015 148.491 39.1731 149.432 39.1731H161.932C162.873 39.1731 163.636 38.4015 163.636 37.4711C163.636 36.5408 162.873 35.7692 161.932 35.7692H149.432Z" fill="white"/>
<path fill-rule="evenodd" clip-rule="evenodd" d="M125 10.2404C125 6.79115 127.798 4 131.25 4H168.75C172.202 4 175 6.79115 175 10.2404V43.1442C175 46.5935 172.202 49.3846 168.75 49.3846H131.25C127.798 49.3846 125 46.5935 125 43.1442V10.2404ZM131.25 7.40385C129.682 7.40385 128.409 8.67462 128.409 10.2404V43.1442C128.409 44.71 129.682 45.9808 131.25 45.9808H168.75C170.318 45.9808 171.591 44.71 171.591 43.1442V10.2404C171.591 8.67462 170.318 7.40385 168.75 7.40385H131.25Z" fill="#222222"/>
<path d="M22.5 66H21V63H22.5V66ZM282.5 64.5L267.5 73.1603V55.8397L282.5 64.5ZM22.5 63H269V66H22.5V63Z" fill="#979797"/>
</svg>
