<svg width="225" height="150" viewBox="0 0 225 150" fill="none" xmlns="http://www.w3.org/2000/svg">
<rect width="225" height="150" fill="white"/>
<rect x="63" y="25" width="100" height="100" rx="5" fill="white"/>
<rect x="61" y="23" width="104" height="104" rx="7" stroke="#979797" stroke-opacity="0.5" stroke-width="4"/>
<path fill-rule="evenodd" clip-rule="evenodd" d="M112.5 38C100.996 38 91.6667 47.3333 91.6667 58.8333C91.6667 70.3333 100.996 79.6667 112.5 79.6667C124.004 79.6667 133.333 70.3333 133.333 58.8333C133.333 47.3333 124.004 38 112.5 38ZM97.9167 58.8333C97.9167 50.7917 104.446 44.25 112.5 44.25C120.554 44.25 127.083 50.7917 127.083 58.8333C127.083 66.875 120.554 73.4167 112.5 73.4167C104.446 73.4167 97.9167 66.875 97.9167 58.8333Z" fill="#FF0000"/>
<path d="M94.7917 85.9167C83.8625 85.9167 75 94.7917 75 105.708V109.875C75 111.583 76.4 113 78.125 113C79.85 113 81.25 111.583 81.25 109.875V105.708C81.25 98.25 87.3125 92.1667 94.7917 92.1667H130.208C137.687 92.1667 143.75 98.25 143.75 105.708V109.875C143.75 111.583 145.15 113 146.875 113C148.6 113 150 111.583 150 109.875V105.708C150 94.7917 141.137 85.9167 130.208 85.9167H94.7917Z" fill="#FF0000"/>
</svg>
