<svg width="450" height="375" viewBox="0 0 450 375" fill="none" xmlns="http://www.w3.org/2000/svg">
<rect width="450" height="375" fill="white"/>
<path d="M13 30.9H438C440.485 30.9 442.5 32.9147 442.5 35.4V354.4C442.5 356.885 440.485 358.9 438 358.9H13C10.5147 358.9 8.5 356.885 8.5 354.4V35.4C8.5 32.9147 10.5147 30.9 13 30.9Z" fill="white" stroke="#222222"/>
<path d="M43 60.4H408C410.209 60.4 412 62.1909 412 64.4V324.4C412 326.609 410.209 328.4 408 328.4H43C40.7909 328.4 39 326.609 39 324.4V64.4C39 62.1909 40.7909 60.4 43 60.4Z" fill="#E1F2FA" stroke="#A6DAF0" stroke-width="2"/>
<path d="M72.6 120H392.6C394.809 120 396.6 121.791 396.6 124V309C396.6 311.209 394.809 313 392.6 313H72.6C70.3908 313 68.6 311.209 68.6 309V124C68.6 121.791 70.3908 120 72.6 120Z" fill="#B4E0F2" stroke="#A6DAF0" stroke-width="2"/>
<rect x="83.5" y="132.9" width="59" height="166" rx="4.5" fill="#87CEEB" fill-opacity="0.5" stroke="#1E90FF"/>
<rect x="188.1" y="134.5" width="194" height="74" rx="4.5" fill="#87CEEB" fill-opacity="0.5" stroke="#1E90FF"/>
<rect x="188.1" y="224.5" width="194" height="74" rx="4.5" fill="#87CEEB" fill-opacity="0.5" stroke="#1E90FF"/>
<path d="M186.6 172H143.6" stroke="#1E90FF" stroke-width="3" stroke-linecap="square"/>
<path d="M187.6 262H144.6" stroke="#1E90FF" stroke-width="3" stroke-linecap="square"/>
<path d="M157.605 154.465C157.48 154.632 157.42 154.854 157.425 155.133H156.386C156.397 154.852 156.445 154.585 156.531 154.332C156.622 154.111 156.765 153.906 156.96 153.719C157.106 153.586 157.279 153.484 157.48 153.414C157.68 153.344 157.927 153.309 158.218 153.309C158.76 153.309 159.196 153.449 159.527 153.73C159.86 154.009 160.027 154.384 160.027 154.855C160.027 155.189 159.928 155.47 159.73 155.699C159.605 155.842 159.475 155.94 159.339 155.992C159.441 155.992 159.587 156.079 159.777 156.254C160.061 156.517 160.203 156.876 160.203 157.332C160.203 157.811 160.036 158.233 159.703 158.598C159.372 158.96 158.881 159.141 158.23 159.141C157.428 159.141 156.871 158.879 156.558 158.355C156.394 158.077 156.303 157.712 156.285 157.262H157.378C157.378 157.488 157.415 157.676 157.488 157.824C157.623 158.098 157.869 158.234 158.226 158.234C158.445 158.234 158.635 158.16 158.796 158.012C158.96 157.861 159.042 157.645 159.042 157.363C159.042 156.991 158.891 156.742 158.589 156.617C158.417 156.547 158.147 156.512 157.777 156.512V155.715C158.139 155.71 158.391 155.674 158.535 155.609C158.782 155.5 158.906 155.279 158.906 154.945C158.906 154.729 158.842 154.553 158.714 154.418C158.589 154.283 158.412 154.215 158.183 154.215C157.92 154.215 157.727 154.298 157.605 154.465ZM162.138 154.465C162.013 154.632 161.953 154.854 161.958 155.133H160.919C160.93 154.852 160.978 154.585 161.064 154.332C161.155 154.111 161.298 153.906 161.494 153.719C161.639 153.586 161.813 153.484 162.013 153.414C162.214 153.344 162.46 153.309 162.751 153.309C163.293 153.309 163.729 153.449 164.06 153.73C164.393 154.009 164.56 154.384 164.56 154.855C164.56 155.189 164.461 155.47 164.263 155.699C164.138 155.842 164.008 155.94 163.872 155.992C163.974 155.992 164.12 156.079 164.31 156.254C164.594 156.517 164.736 156.876 164.736 157.332C164.736 157.811 164.569 158.233 164.236 158.598C163.905 158.96 163.414 159.141 162.763 159.141C161.961 159.141 161.404 158.879 161.091 158.355C160.927 158.077 160.836 157.712 160.818 157.262H161.912C161.912 157.488 161.948 157.676 162.021 157.824C162.156 158.098 162.402 158.234 162.759 158.234C162.978 158.234 163.168 158.16 163.33 158.012C163.494 157.861 163.576 157.645 163.576 157.363C163.576 156.991 163.425 156.742 163.122 156.617C162.951 156.547 162.68 156.512 162.31 156.512V155.715C162.672 155.71 162.925 155.674 163.068 155.609C163.315 155.5 163.439 155.279 163.439 154.945C163.439 154.729 163.375 154.553 163.247 154.418C163.122 154.283 162.945 154.215 162.716 154.215C162.453 154.215 162.26 154.298 162.138 154.465ZM165.839 158.645C165.514 158.311 165.351 157.906 165.351 157.43C165.351 157.112 165.423 156.824 165.566 156.566C165.712 156.309 165.924 156.115 166.202 155.984C165.929 155.802 165.751 155.605 165.667 155.395C165.587 155.181 165.546 154.982 165.546 154.797C165.546 154.385 165.701 154.035 166.011 153.746C166.321 153.454 166.758 153.309 167.324 153.309C167.889 153.309 168.326 153.454 168.636 153.746C168.946 154.035 169.101 154.385 169.101 154.797C169.101 154.982 169.059 155.181 168.976 155.395C168.895 155.605 168.718 155.789 168.445 155.945C168.723 156.102 168.933 156.309 169.074 156.566C169.214 156.824 169.285 157.112 169.285 157.43C169.285 157.906 169.107 158.312 168.753 158.648C168.402 158.982 167.91 159.148 167.277 159.148C166.644 159.148 166.165 158.98 165.839 158.645ZM166.507 157.355C166.507 157.634 166.579 157.85 166.722 158.004C166.868 158.158 167.068 158.234 167.324 158.234C167.579 158.234 167.778 158.158 167.921 158.004C168.067 157.85 168.14 157.634 168.14 157.355C168.14 157.066 168.066 156.848 167.917 156.699C167.771 156.548 167.574 156.473 167.324 156.473C167.074 156.473 166.874 156.548 166.726 156.699C166.58 156.848 166.507 157.066 166.507 157.355ZM166.8 155.426C166.925 155.556 167.1 155.621 167.324 155.621C167.55 155.621 167.725 155.556 167.847 155.426C167.972 155.296 168.035 155.128 168.035 154.922C168.035 154.698 167.972 154.523 167.847 154.398C167.725 154.271 167.55 154.207 167.324 154.207C167.1 154.207 166.924 154.271 166.796 154.398C166.671 154.523 166.609 154.698 166.609 154.922C166.609 155.128 166.673 155.296 166.8 155.426ZM171.751 159.164C171.327 159.164 170.945 159.039 170.607 158.789C170.268 158.536 170.074 158.169 170.025 157.688H171.134C171.16 157.854 171.23 157.99 171.345 158.094C171.46 158.198 171.612 158.25 171.802 158.25C172.169 158.25 172.427 158.047 172.575 157.641C172.656 157.417 172.707 157.09 172.728 156.66C172.626 156.788 172.518 156.885 172.404 156.953C172.195 157.078 171.939 157.141 171.634 157.141C171.184 157.141 170.784 156.986 170.435 156.676C170.086 156.363 169.911 155.914 169.911 155.328C169.911 154.721 170.086 154.23 170.435 153.855C170.786 153.478 171.242 153.289 171.802 153.289C172.664 153.289 173.255 153.671 173.575 154.434C173.758 154.866 173.849 155.435 173.849 156.141C173.849 156.826 173.762 157.397 173.587 157.855C173.254 158.728 172.642 159.164 171.751 159.164ZM171.361 154.379C171.147 154.546 171.04 154.828 171.04 155.227C171.04 155.562 171.108 155.815 171.243 155.984C171.381 156.151 171.592 156.234 171.876 156.234C172.03 156.234 172.174 156.19 172.31 156.102C172.562 155.94 172.689 155.66 172.689 155.262C172.689 154.941 172.613 154.688 172.462 154.5C172.314 154.312 172.109 154.219 171.849 154.219C171.659 154.219 171.496 154.272 171.361 154.379Z" fill="#222222"/>
<path d="M104.846 89.125C104.803 89.5039 104.606 89.8887 104.254 90.2793C103.707 90.9004 102.942 91.2109 101.957 91.2109C101.145 91.2109 100.428 90.9492 99.807 90.4258C99.1859 89.9023 98.8754 89.0508 98.8754 87.8711C98.8754 86.7656 99.1547 85.918 99.7133 85.3281C100.276 84.7383 101.004 84.4434 101.899 84.4434C102.43 84.4434 102.909 84.543 103.334 84.7422C103.76 84.9414 104.112 85.2559 104.389 85.6855C104.639 86.0645 104.801 86.5039 104.875 87.0039C104.918 87.2969 104.936 87.7188 104.928 88.2695H100.557C100.58 88.9102 100.782 89.3594 101.161 89.6172C101.391 89.7773 101.668 89.8574 101.993 89.8574C102.336 89.8574 102.616 89.7598 102.83 89.5645C102.948 89.459 103.051 89.3125 103.141 89.125H104.846ZM103.194 87.168C103.166 86.7266 103.032 86.3926 102.789 86.166C102.551 85.9355 102.254 85.8203 101.899 85.8203C101.512 85.8203 101.211 85.9414 100.996 86.1836C100.786 86.4258 100.653 86.7539 100.598 87.168H103.194ZM111.868 91H109.788L108.687 89.084L107.579 91H105.552L107.732 87.7656L105.646 84.625H107.691L108.757 86.4766L109.8 84.625H111.786L109.689 87.7363L111.868 91ZM113.219 85.3047C113.66 84.7422 114.418 84.4609 115.492 84.4609C116.192 84.4609 116.813 84.5996 117.356 84.877C117.899 85.1543 118.17 85.6777 118.17 86.4473V89.377C118.17 89.5801 118.174 89.8262 118.182 90.1152C118.193 90.334 118.227 90.4824 118.281 90.5605C118.336 90.6387 118.418 90.7031 118.527 90.7539V91H116.711C116.66 90.8711 116.625 90.75 116.606 90.6367C116.586 90.5234 116.57 90.3945 116.559 90.25C116.328 90.5 116.063 90.7129 115.762 90.8887C115.402 91.0957 114.996 91.1992 114.543 91.1992C113.965 91.1992 113.486 91.0352 113.108 90.707C112.733 90.375 112.545 89.9062 112.545 89.3008C112.545 88.5156 112.848 87.9473 113.453 87.5957C113.785 87.4043 114.274 87.2676 114.918 87.1855L115.486 87.1152C115.795 87.0762 116.016 87.0273 116.149 86.9688C116.387 86.8672 116.506 86.709 116.506 86.4941C116.506 86.2324 116.414 86.0527 116.231 85.9551C116.051 85.8535 115.785 85.8027 115.434 85.8027C115.039 85.8027 114.76 85.9004 114.596 86.0957C114.479 86.2402 114.401 86.4355 114.361 86.6816H112.75C112.785 86.123 112.942 85.6641 113.219 85.3047ZM114.461 89.793C114.617 89.9219 114.809 89.9863 115.035 89.9863C115.395 89.9863 115.725 89.8809 116.026 89.6699C116.33 89.459 116.488 89.0742 116.5 88.5156V87.8945C116.395 87.9609 116.287 88.0156 116.178 88.0586C116.072 88.0977 115.926 88.1348 115.738 88.1699L115.363 88.2402C115.012 88.3027 114.76 88.3789 114.608 88.4688C114.35 88.6211 114.221 88.8574 114.221 89.1777C114.221 89.4629 114.301 89.668 114.461 89.793ZM123.364 86.3711C123.224 86.0625 122.948 85.9082 122.538 85.9082C122.062 85.9082 121.741 86.0625 121.577 86.3711C121.487 86.5469 121.442 86.8086 121.442 87.1562V91H119.749V84.625H121.372V85.5566C121.579 85.2246 121.774 84.9883 121.958 84.8477C122.282 84.5977 122.702 84.4727 123.218 84.4727C123.706 84.4727 124.101 84.5801 124.401 84.7949C124.644 84.9941 124.827 85.25 124.952 85.5625C125.171 85.1875 125.442 84.9121 125.767 84.7363C126.11 84.5605 126.493 84.4727 126.915 84.4727C127.196 84.4727 127.474 84.5273 127.747 84.6367C128.021 84.7461 128.269 84.9375 128.491 85.2109C128.671 85.4336 128.792 85.707 128.855 86.0312C128.894 86.2461 128.913 86.5605 128.913 86.9746L128.901 91H127.19V86.9336C127.19 86.6914 127.151 86.4922 127.073 86.3359C126.925 86.0391 126.651 85.8906 126.253 85.8906C125.792 85.8906 125.474 86.082 125.298 86.4648C125.208 86.668 125.163 86.9121 125.163 87.1973V91H123.481V87.1973C123.481 86.8184 123.442 86.543 123.364 86.3711ZM135.924 85.2988C136.439 85.8496 136.697 86.6582 136.697 87.7246C136.697 88.8496 136.443 89.707 135.935 90.2969C135.432 90.8867 134.781 91.1816 133.984 91.1816C133.476 91.1816 133.055 91.0547 132.719 90.8008C132.535 90.6602 132.355 90.4551 132.18 90.1855V93.5137H130.527V84.6133H132.127V85.5566C132.307 85.2793 132.498 85.0605 132.701 84.9004C133.072 84.6152 133.514 84.4727 134.025 84.4727C134.771 84.4727 135.404 84.748 135.924 85.2988ZM134.975 87.8066C134.975 87.3145 134.861 86.8789 134.635 86.5C134.412 86.1211 134.049 85.9316 133.545 85.9316C132.939 85.9316 132.523 86.2188 132.297 86.793C132.18 87.0977 132.121 87.4844 132.121 87.9531C132.121 88.6953 132.318 89.2168 132.713 89.5176C132.947 89.6934 133.225 89.7812 133.545 89.7812C134.01 89.7812 134.363 89.6016 134.605 89.2422C134.851 88.8828 134.975 88.4043 134.975 87.8066ZM138.065 82.3633H139.735V91H138.065V82.3633ZM146.957 89.125C146.914 89.5039 146.716 89.8887 146.365 90.2793C145.818 90.9004 145.052 91.2109 144.068 91.2109C143.256 91.2109 142.539 90.9492 141.918 90.4258C141.297 89.9023 140.986 89.0508 140.986 87.8711C140.986 86.7656 141.265 85.918 141.824 85.3281C142.386 84.7383 143.115 84.4434 144.009 84.4434C144.541 84.4434 145.019 84.543 145.445 84.7422C145.871 84.9414 146.222 85.2559 146.5 85.6855C146.75 86.0645 146.912 86.5039 146.986 87.0039C147.029 87.2969 147.047 87.7188 147.039 88.2695H142.668C142.691 88.9102 142.892 89.3594 143.271 89.6172C143.502 89.7773 143.779 89.8574 144.103 89.8574C144.447 89.8574 144.726 89.7598 144.941 89.5645C145.058 89.459 145.162 89.3125 145.252 89.125H146.957ZM145.304 87.168C145.277 86.7266 145.142 86.3926 144.9 86.166C144.662 85.9355 144.365 85.8203 144.009 85.8203C143.623 85.8203 143.322 85.9414 143.107 86.1836C142.896 86.4258 142.763 86.7539 142.709 87.168H145.304ZM147.786 86.8633H151.149V88.4453H147.786V86.8633ZM155.617 86.1543C154.945 86.1543 154.494 86.373 154.263 86.8105C154.134 87.0566 154.07 87.4355 154.07 87.9473V91H152.388V84.6133H153.982V85.7266C154.24 85.3008 154.464 85.0098 154.656 84.8535C154.968 84.5918 155.374 84.4609 155.874 84.4609C155.906 84.4609 155.931 84.4629 155.951 84.4668C155.974 84.4668 156.023 84.4688 156.097 84.4727V86.1836C155.992 86.1719 155.898 86.1641 155.816 86.1602C155.734 86.1562 155.667 86.1543 155.617 86.1543ZM159.006 92.1191C159.186 92.2715 159.489 92.3477 159.914 92.3477C160.516 92.3477 160.918 92.1465 161.121 91.7441C161.254 91.4863 161.321 91.0527 161.321 90.4434V90.0332C161.16 90.3066 160.989 90.5117 160.805 90.6484C160.473 90.9023 160.041 91.0293 159.51 91.0293C158.69 91.0293 158.033 90.7422 157.541 90.168C157.053 89.5898 156.809 88.8086 156.809 87.8242C156.809 86.875 157.045 86.0781 157.518 85.4336C157.991 84.7852 158.66 84.4609 159.528 84.4609C159.848 84.4609 160.127 84.5098 160.366 84.6074C160.772 84.7754 161.1 85.084 161.35 85.5332V84.6133H162.973V90.6719C162.973 91.4961 162.834 92.1172 162.557 92.5352C162.08 93.2539 161.166 93.6133 159.815 93.6133C158.998 93.6133 158.332 93.4531 157.817 93.1328C157.301 92.8125 157.016 92.334 156.961 91.6973H158.778C158.825 91.8926 158.901 92.0332 159.006 92.1191ZM158.725 88.8203C158.951 89.3594 159.358 89.6289 159.944 89.6289C160.334 89.6289 160.664 89.4824 160.934 89.1895C161.203 88.8926 161.338 88.4219 161.338 87.7773C161.338 87.1719 161.209 86.7109 160.951 86.3945C160.698 86.0781 160.356 85.9199 159.926 85.9199C159.34 85.9199 158.936 86.1953 158.713 86.7461C158.596 87.0391 158.537 87.4004 158.537 87.8301C158.537 88.2012 158.6 88.5312 158.725 88.8203Z" fill="#222222"/>
<path d="M268.729 102.299C269.245 102.85 269.502 103.658 269.502 104.725C269.502 105.85 269.248 106.707 268.741 107.297C268.237 107.887 267.586 108.182 266.789 108.182C266.282 108.182 265.86 108.055 265.524 107.801C265.34 107.66 265.161 107.455 264.985 107.186V110.514H263.332V101.613H264.932V102.557C265.112 102.279 265.303 102.061 265.506 101.9C265.877 101.615 266.319 101.473 266.83 101.473C267.577 101.473 268.209 101.748 268.729 102.299ZM267.78 104.807C267.78 104.314 267.666 103.879 267.44 103.5C267.217 103.121 266.854 102.932 266.35 102.932C265.745 102.932 265.328 103.219 265.102 103.793C264.985 104.098 264.926 104.484 264.926 104.953C264.926 105.695 265.123 106.217 265.518 106.518C265.752 106.693 266.03 106.781 266.35 106.781C266.815 106.781 267.168 106.602 267.411 106.242C267.657 105.883 267.78 105.404 267.78 104.807ZM274.046 103.154C273.374 103.154 272.923 103.373 272.693 103.811C272.564 104.057 272.499 104.436 272.499 104.947V108H270.818V101.613H272.411V102.727C272.669 102.301 272.894 102.01 273.085 101.854C273.398 101.592 273.804 101.461 274.304 101.461C274.335 101.461 274.361 101.463 274.38 101.467C274.404 101.467 274.452 101.469 274.527 101.473V103.184C274.421 103.172 274.327 103.164 274.245 103.16C274.163 103.156 274.097 103.154 274.046 103.154ZM277.348 101.613V108H275.654V101.613H277.348ZM277.348 99.3105V100.852H275.654V99.3105H277.348ZM278.464 101.613H280.339L281.669 106.324L283.028 101.613H284.821L282.519 108H280.755L278.464 101.613ZM286.131 102.305C286.572 101.742 287.33 101.461 288.404 101.461C289.103 101.461 289.725 101.6 290.267 101.877C290.81 102.154 291.082 102.678 291.082 103.447V106.377C291.082 106.58 291.086 106.826 291.094 107.115C291.105 107.334 291.139 107.482 291.193 107.561C291.248 107.639 291.33 107.703 291.439 107.754V108H289.623C289.572 107.871 289.537 107.75 289.517 107.637C289.498 107.523 289.482 107.395 289.471 107.25C289.24 107.5 288.975 107.713 288.674 107.889C288.314 108.096 287.908 108.199 287.455 108.199C286.877 108.199 286.398 108.035 286.019 107.707C285.644 107.375 285.457 106.906 285.457 106.301C285.457 105.516 285.76 104.947 286.365 104.596C286.697 104.404 287.185 104.268 287.83 104.186L288.398 104.115C288.707 104.076 288.928 104.027 289.06 103.969C289.299 103.867 289.418 103.709 289.418 103.494C289.418 103.232 289.326 103.053 289.142 102.955C288.963 102.854 288.697 102.803 288.346 102.803C287.951 102.803 287.672 102.9 287.508 103.096C287.391 103.24 287.312 103.436 287.273 103.682H285.662C285.697 103.123 285.853 102.664 286.131 102.305ZM287.373 106.793C287.529 106.922 287.721 106.986 287.947 106.986C288.307 106.986 288.637 106.881 288.937 106.67C289.242 106.459 289.4 106.074 289.412 105.516V104.895C289.307 104.961 289.199 105.016 289.09 105.059C288.984 105.098 288.838 105.135 288.65 105.17L288.275 105.24C287.924 105.303 287.672 105.379 287.519 105.469C287.262 105.621 287.133 105.857 287.133 106.178C287.133 106.463 287.213 106.668 287.373 106.793ZM295.614 106.811V108.059L294.823 108.088C294.034 108.115 293.495 107.979 293.206 107.678C293.018 107.486 292.925 107.191 292.925 106.793V102.861H292.034V101.672H292.925V99.8906H294.577V101.672H295.614V102.861H294.577V106.236C294.577 106.498 294.61 106.662 294.677 106.729C294.743 106.791 294.946 106.822 295.286 106.822C295.337 106.822 295.389 106.822 295.444 106.822C295.503 106.818 295.559 106.814 295.614 106.811ZM302.273 106.125C302.23 106.504 302.033 106.889 301.681 107.279C301.134 107.9 300.369 108.211 299.384 108.211C298.572 108.211 297.855 107.949 297.234 107.426C296.613 106.902 296.302 106.051 296.302 104.871C296.302 103.766 296.582 102.918 297.14 102.328C297.703 101.738 298.431 101.443 299.326 101.443C299.857 101.443 300.336 101.543 300.761 101.742C301.187 101.941 301.539 102.256 301.816 102.686C302.066 103.064 302.228 103.504 302.302 104.004C302.345 104.297 302.363 104.719 302.355 105.27H297.984C298.007 105.91 298.209 106.359 298.588 106.617C298.818 106.777 299.095 106.857 299.42 106.857C299.763 106.857 300.043 106.76 300.257 106.564C300.375 106.459 300.478 106.312 300.568 106.125H302.273ZM300.621 104.168C300.593 103.727 300.459 103.393 300.216 103.166C299.978 102.936 299.681 102.82 299.326 102.82C298.939 102.82 298.638 102.941 298.423 103.184C298.213 103.426 298.08 103.754 298.025 104.168H300.621ZM310.072 102.85C309.505 102.85 309.117 103.09 308.906 103.57C308.796 103.824 308.742 104.148 308.742 104.543V108H307.078V101.625H308.689V102.557C308.904 102.229 309.107 101.992 309.298 101.848C309.642 101.59 310.078 101.461 310.605 101.461C311.265 101.461 311.804 101.635 312.222 101.982C312.644 102.326 312.855 102.898 312.855 103.699V108H311.144V104.115C311.144 103.779 311.099 103.521 311.009 103.342C310.845 103.014 310.533 102.85 310.072 102.85ZM319.989 106.125C319.946 106.504 319.748 106.889 319.397 107.279C318.85 107.9 318.084 108.211 317.1 108.211C316.287 108.211 315.571 107.949 314.95 107.426C314.328 106.902 314.018 106.051 314.018 104.871C314.018 103.766 314.297 102.918 314.856 102.328C315.418 101.738 316.147 101.443 317.041 101.443C317.573 101.443 318.051 101.543 318.477 101.742C318.903 101.941 319.254 102.256 319.532 102.686C319.782 103.064 319.944 103.504 320.018 104.004C320.061 104.297 320.078 104.719 320.071 105.27H315.7C315.723 105.91 315.924 106.359 316.303 106.617C316.533 106.777 316.811 106.857 317.135 106.857C317.479 106.857 317.758 106.76 317.973 106.564C318.09 106.459 318.194 106.312 318.283 106.125H319.989ZM318.336 104.168C318.309 103.727 318.174 103.393 317.932 103.166C317.694 102.936 317.397 102.82 317.041 102.82C316.655 102.82 316.354 102.941 316.139 103.184C315.928 103.426 315.795 103.754 315.741 104.168H318.336ZM324.245 106.811V108.059L323.454 108.088C322.665 108.115 322.126 107.979 321.837 107.678C321.65 107.486 321.556 107.191 321.556 106.793V102.861H320.665V101.672H321.556V99.8906H323.208V101.672H324.245V102.861H323.208V106.236C323.208 106.498 323.241 106.662 323.308 106.729C323.374 106.791 323.577 106.822 323.917 106.822C323.968 106.822 324.021 106.822 324.075 106.822C324.134 106.818 324.191 106.814 324.245 106.811ZM330.283 108L329.281 103.348L328.268 108H326.533L324.74 101.613H326.533L327.529 106.195L328.449 101.613H330.143L331.115 106.213L332.111 101.613H333.852L332 108H330.283ZM340.224 102.422C340.763 103.098 341.032 103.896 341.032 104.818C341.032 105.756 340.763 106.559 340.224 107.227C339.685 107.891 338.866 108.223 337.768 108.223C336.671 108.223 335.852 107.891 335.313 107.227C334.774 106.559 334.505 105.756 334.505 104.818C334.505 103.896 334.774 103.098 335.313 102.422C335.852 101.746 336.671 101.408 337.768 101.408C338.866 101.408 339.685 101.746 340.224 102.422ZM337.763 102.82C337.274 102.82 336.897 102.994 336.632 103.342C336.37 103.686 336.239 104.178 336.239 104.818C336.239 105.459 336.37 105.953 336.632 106.301C336.897 106.648 337.274 106.822 337.763 106.822C338.251 106.822 338.626 106.648 338.888 106.301C339.149 105.953 339.28 105.459 339.28 104.818C339.28 104.178 339.149 103.686 338.888 103.342C338.626 102.994 338.251 102.82 337.763 102.82ZM345.564 103.154C344.892 103.154 344.441 103.373 344.211 103.811C344.082 104.057 344.017 104.436 344.017 104.947V108H342.336V101.613H343.93V102.727C344.187 102.301 344.412 102.01 344.603 101.854C344.916 101.592 345.322 101.461 345.822 101.461C345.853 101.461 345.879 101.463 345.898 101.467C345.922 101.467 345.971 101.469 346.045 101.473V103.184C345.939 103.172 345.846 103.164 345.763 103.16C345.681 103.156 345.615 103.154 345.564 103.154ZM353.008 108H350.993L349.464 105.27L348.772 105.99V108H347.132V99.3926H348.772V104.045L350.852 101.643H352.921L350.688 104.086L353.008 108Z" fill="#222222"/>
<path d="M217.157 191.671H215.781V194H214.437V187.522H217.258C217.908 187.522 218.427 187.689 218.814 188.023C219.2 188.357 219.394 188.875 219.394 189.575C219.394 190.339 219.2 190.88 218.814 191.196C218.427 191.513 217.875 191.671 217.157 191.671ZM217.79 190.322C217.966 190.167 218.053 189.92 218.053 189.583C218.053 189.247 217.964 189.006 217.785 188.863C217.61 188.719 217.362 188.647 217.043 188.647H215.781V190.555H217.043C217.362 190.555 217.611 190.477 217.79 190.322ZM223.47 193.323C223.458 193.338 223.429 193.382 223.382 193.455C223.335 193.528 223.279 193.593 223.215 193.648C223.018 193.824 222.828 193.944 222.643 194.009C222.462 194.073 222.248 194.105 222.002 194.105C221.293 194.105 220.815 193.851 220.569 193.341C220.432 193.06 220.363 192.645 220.363 192.097V189.21H221.646V192.097C221.646 192.37 221.678 192.575 221.743 192.712C221.857 192.956 222.081 193.077 222.415 193.077C222.843 193.077 223.136 192.904 223.294 192.559C223.376 192.371 223.417 192.124 223.417 191.816V189.21H224.687V194H223.47V193.323ZM228.591 194.127C228.196 194.127 227.878 194.048 227.638 193.89C227.494 193.796 227.339 193.632 227.172 193.398V194H225.946V187.531H227.194V189.834C227.352 189.611 227.526 189.441 227.717 189.324C227.942 189.178 228.23 189.104 228.578 189.104C229.208 189.104 229.7 189.332 230.055 189.786C230.412 190.24 230.591 190.826 230.591 191.543C230.591 192.288 230.415 192.904 230.064 193.394C229.712 193.883 229.221 194.127 228.591 194.127ZM229.277 191.675C229.277 191.335 229.233 191.054 229.145 190.832C228.978 190.41 228.67 190.199 228.222 190.199C227.768 190.199 227.456 190.405 227.286 190.818C227.198 191.038 227.154 191.322 227.154 191.671C227.154 192.081 227.245 192.421 227.427 192.69C227.608 192.96 227.885 193.095 228.257 193.095C228.58 193.095 228.83 192.964 229.009 192.704C229.188 192.443 229.277 192.1 229.277 191.675ZM231.608 187.522H232.861V194H231.608V187.522ZM235.464 189.21V194H234.194V189.21H235.464ZM235.464 187.483V188.639H234.194V187.483H235.464ZM240.916 190.928H239.632C239.609 190.75 239.549 190.588 239.452 190.445C239.312 190.251 239.093 190.155 238.797 190.155C238.376 190.155 238.087 190.364 237.932 190.783C237.85 191.006 237.809 191.302 237.809 191.671C237.809 192.022 237.85 192.305 237.932 192.519C238.081 192.917 238.362 193.117 238.775 193.117C239.068 193.117 239.276 193.038 239.399 192.879C239.522 192.721 239.597 192.516 239.624 192.264H240.902C240.873 192.645 240.735 193.005 240.489 193.345C240.097 193.893 239.515 194.167 238.745 194.167C237.974 194.167 237.407 193.938 237.044 193.481C236.681 193.024 236.499 192.431 236.499 191.702C236.499 190.878 236.7 190.238 237.101 189.781C237.502 189.324 238.056 189.096 238.762 189.096C239.363 189.096 239.854 189.23 240.234 189.5C240.618 189.77 240.845 190.246 240.916 190.928ZM244.462 187.522H245.806V194H244.462V187.522ZM249.913 191.671H248.538V194H247.193V187.522H250.014C250.665 187.522 251.183 187.689 251.57 188.023C251.957 188.357 252.15 188.875 252.15 189.575C252.15 190.339 251.957 190.88 251.57 191.196C251.183 191.513 250.631 191.671 249.913 191.671ZM250.546 190.322C250.722 190.167 250.81 189.92 250.81 189.583C250.81 189.247 250.72 189.006 250.542 188.863C250.366 188.719 250.118 188.647 249.799 188.647H248.538V190.555H249.799C250.118 190.555 250.367 190.477 250.546 190.322Z" fill="#222222"/>
<path d="M272.095 187.522H273.47L271.646 194H270.354L269.572 190.212L269.344 188.959L269.115 190.212L268.333 194H267.076L265.239 187.522H266.676L267.533 191.231L267.718 192.264L267.907 191.253L268.636 187.522H270.064L270.833 191.231L271.031 192.264L271.229 191.271L272.095 187.522ZM275.489 189.21V194H274.219V189.21H275.489ZM275.489 187.483V188.639H274.219V187.483H275.489ZM279.051 190.137C278.626 190.137 278.335 190.317 278.176 190.678C278.094 190.868 278.053 191.111 278.053 191.407V194H276.805V189.219H278.014V189.917C278.175 189.671 278.327 189.494 278.471 189.386C278.729 189.192 279.055 189.096 279.451 189.096C279.946 189.096 280.35 189.226 280.664 189.487C280.98 189.745 281.138 190.174 281.138 190.774V194H279.855V191.086C279.855 190.834 279.821 190.641 279.754 190.506C279.631 190.26 279.397 190.137 279.051 190.137ZM286.748 187.531V194H285.531V193.336C285.352 193.621 285.148 193.827 284.92 193.956C284.691 194.085 284.407 194.149 284.067 194.149C283.508 194.149 283.036 193.924 282.652 193.473C282.271 193.019 282.081 192.437 282.081 191.728C282.081 190.911 282.268 190.268 282.643 189.799C283.021 189.33 283.525 189.096 284.155 189.096C284.445 189.096 284.703 189.16 284.929 189.289C285.154 189.415 285.337 189.591 285.478 189.816V187.531H286.748ZM283.373 191.636C283.373 192.078 283.461 192.431 283.637 192.695C283.809 192.961 284.073 193.095 284.428 193.095C284.782 193.095 285.052 192.963 285.236 192.699C285.421 192.436 285.513 192.094 285.513 191.675C285.513 191.089 285.365 190.67 285.069 190.418C284.888 190.266 284.677 190.19 284.436 190.19C284.07 190.19 283.801 190.329 283.628 190.607C283.458 190.883 283.373 191.226 283.373 191.636ZM291.975 189.816C292.379 190.323 292.582 190.922 292.582 191.614C292.582 192.317 292.379 192.919 291.975 193.42C291.571 193.918 290.957 194.167 290.134 194.167C289.311 194.167 288.697 193.918 288.293 193.42C287.888 192.919 287.686 192.317 287.686 191.614C287.686 190.922 287.888 190.323 288.293 189.816C288.697 189.31 289.311 189.056 290.134 189.056C290.957 189.056 291.571 189.31 291.975 189.816ZM290.129 190.115C289.763 190.115 289.481 190.246 289.281 190.506C289.085 190.764 288.987 191.133 288.987 191.614C288.987 192.094 289.085 192.465 289.281 192.726C289.481 192.986 289.763 193.117 290.129 193.117C290.496 193.117 290.777 192.986 290.973 192.726C291.169 192.465 291.268 192.094 291.268 191.614C291.268 191.133 291.169 190.764 290.973 190.506C290.777 190.246 290.496 190.115 290.129 190.115ZM297.207 194L296.455 190.511L295.695 194H294.394L293.05 189.21H294.394L295.141 192.646L295.831 189.21H297.101L297.831 192.66L298.578 189.21H299.883L298.494 194H297.207ZM303.968 189.43C304.343 189.67 304.558 190.083 304.614 190.669H303.361C303.344 190.508 303.298 190.38 303.225 190.287C303.087 190.117 302.853 190.032 302.522 190.032C302.249 190.032 302.055 190.074 301.937 190.159C301.823 190.244 301.766 190.344 301.766 190.458C301.766 190.602 301.827 190.706 301.951 190.77C302.074 190.837 302.509 190.953 303.256 191.117C303.754 191.234 304.127 191.412 304.376 191.649C304.622 191.889 304.745 192.189 304.745 192.55C304.745 193.024 304.568 193.413 304.214 193.714C303.862 194.013 303.317 194.163 302.579 194.163C301.826 194.163 301.269 194.004 300.909 193.688C300.552 193.369 300.373 192.963 300.373 192.471H301.643C301.669 192.693 301.726 192.852 301.814 192.945C301.97 193.112 302.257 193.196 302.676 193.196C302.922 193.196 303.117 193.159 303.26 193.086C303.407 193.013 303.48 192.903 303.48 192.756C303.48 192.616 303.421 192.509 303.304 192.436C303.187 192.362 302.752 192.236 301.999 192.058C301.457 191.923 301.075 191.754 300.852 191.552C300.629 191.353 300.518 191.066 300.518 190.691C300.518 190.249 300.691 189.869 301.036 189.553C301.385 189.233 301.874 189.074 302.504 189.074C303.102 189.074 303.59 189.192 303.968 189.43Z" fill="#222222"/>
<path d="M321.235 194H318.445V187.522H321.235C321.637 187.528 321.971 187.575 322.237 187.663C322.691 187.812 323.059 188.086 323.34 188.485C323.566 188.807 323.72 189.156 323.802 189.531C323.884 189.906 323.925 190.263 323.925 190.603C323.925 191.464 323.752 192.194 323.406 192.792C322.937 193.597 322.214 194 321.235 194ZM322.242 189.175C322.034 188.823 321.622 188.647 321.007 188.647H319.759V192.875H321.007C321.645 192.875 322.091 192.56 322.343 191.93C322.48 191.584 322.549 191.173 322.549 190.695C322.549 190.036 322.447 189.529 322.242 189.175ZM325.118 189.729C325.449 189.307 326.017 189.096 326.823 189.096C327.347 189.096 327.813 189.2 328.22 189.408C328.627 189.616 328.831 190.008 328.831 190.585V192.783C328.831 192.935 328.834 193.12 328.84 193.336C328.849 193.5 328.874 193.612 328.915 193.67C328.956 193.729 329.017 193.777 329.099 193.815V194H327.737C327.699 193.903 327.672 193.812 327.658 193.728C327.643 193.643 327.631 193.546 327.623 193.438C327.45 193.625 327.25 193.785 327.025 193.917C326.755 194.072 326.451 194.149 326.111 194.149C325.677 194.149 325.318 194.026 325.034 193.78C324.753 193.531 324.612 193.18 324.612 192.726C324.612 192.137 324.839 191.71 325.293 191.447C325.542 191.303 325.909 191.201 326.392 191.139L326.818 191.086C327.05 191.057 327.215 191.021 327.315 190.977C327.494 190.9 327.583 190.782 327.583 190.621C327.583 190.424 327.514 190.29 327.376 190.216C327.242 190.14 327.042 190.102 326.779 190.102C326.483 190.102 326.273 190.175 326.15 190.322C326.062 190.43 326.004 190.577 325.975 190.761H324.766C324.792 190.342 324.91 189.998 325.118 189.729ZM326.049 193.095C326.166 193.191 326.31 193.24 326.48 193.24C326.749 193.24 326.997 193.161 327.223 193.002C327.451 192.844 327.57 192.556 327.579 192.137V191.671C327.499 191.721 327.419 191.762 327.337 191.794C327.258 191.823 327.148 191.851 327.007 191.877L326.726 191.93C326.462 191.977 326.273 192.034 326.159 192.102C325.966 192.216 325.869 192.393 325.869 192.633C325.869 192.847 325.929 193.001 326.049 193.095ZM332.23 193.108V194.044L331.637 194.066C331.045 194.086 330.641 193.984 330.424 193.758C330.283 193.615 330.213 193.394 330.213 193.095V190.146H329.545V189.254H330.213V187.918H331.452V189.254H332.23V190.146H331.452V192.677C331.452 192.874 331.477 192.997 331.527 193.046C331.577 193.093 331.729 193.117 331.984 193.117C332.022 193.117 332.062 193.117 332.103 193.117C332.147 193.114 332.189 193.111 332.23 193.108ZM333.304 189.729C333.636 189.307 334.204 189.096 335.01 189.096C335.534 189.096 336 189.2 336.407 189.408C336.814 189.616 337.018 190.008 337.018 190.585V192.783C337.018 192.935 337.021 193.12 337.027 193.336C337.035 193.5 337.06 193.612 337.101 193.67C337.142 193.729 337.204 193.777 337.286 193.815V194H335.924C335.886 193.903 335.859 193.812 335.845 193.728C335.83 193.643 335.818 193.546 335.809 193.438C335.637 193.625 335.437 193.785 335.212 193.917C334.942 194.072 334.637 194.149 334.298 194.149C333.864 194.149 333.505 194.026 333.221 193.78C332.94 193.531 332.799 193.18 332.799 192.726C332.799 192.137 333.026 191.71 333.48 191.447C333.729 191.303 334.096 191.201 334.579 191.139L335.005 191.086C335.237 191.057 335.402 191.021 335.502 190.977C335.68 190.9 335.77 190.782 335.77 190.621C335.77 190.424 335.701 190.29 335.563 190.216C335.429 190.14 335.229 190.102 334.966 190.102C334.67 190.102 334.46 190.175 334.337 190.322C334.249 190.43 334.191 190.577 334.161 190.761H332.953C332.979 190.342 333.096 189.998 333.304 189.729ZM334.236 193.095C334.353 193.191 334.497 193.24 334.667 193.24C334.936 193.24 335.184 193.161 335.409 193.002C335.638 192.844 335.757 192.556 335.765 192.137V191.671C335.686 191.721 335.606 191.762 335.524 191.794C335.445 191.823 335.335 191.851 335.194 191.877L334.913 191.93C334.649 191.977 334.46 192.034 334.346 192.102C334.153 192.216 334.056 192.393 334.056 192.633C334.056 192.847 334.116 193.001 334.236 193.095ZM340.826 194.127C340.43 194.127 340.112 194.048 339.872 193.89C339.728 193.796 339.573 193.632 339.406 193.398V194H338.18V187.531H339.428V189.834C339.586 189.611 339.761 189.441 339.951 189.324C340.177 189.178 340.464 189.104 340.812 189.104C341.442 189.104 341.935 189.332 342.289 189.786C342.646 190.24 342.825 190.826 342.825 191.543C342.825 192.288 342.649 192.904 342.298 193.394C341.946 193.883 341.456 194.127 340.826 194.127ZM341.511 191.675C341.511 191.335 341.467 191.054 341.379 190.832C341.212 190.41 340.905 190.199 340.456 190.199C340.002 190.199 339.69 190.405 339.52 190.818C339.433 191.038 339.389 191.322 339.389 191.671C339.389 192.081 339.479 192.421 339.661 192.69C339.843 192.96 340.12 193.095 340.492 193.095C340.814 193.095 341.064 192.964 341.243 192.704C341.422 192.443 341.511 192.1 341.511 191.675ZM343.996 189.729C344.327 189.307 344.896 189.096 345.701 189.096C346.226 189.096 346.692 189.2 347.099 189.408C347.506 189.616 347.71 190.008 347.71 190.585V192.783C347.71 192.935 347.713 193.12 347.718 193.336C347.727 193.5 347.752 193.612 347.793 193.67C347.834 193.729 347.896 193.777 347.978 193.815V194H346.615C346.577 193.903 346.551 193.812 346.536 193.728C346.522 193.643 346.51 193.546 346.501 193.438C346.328 193.625 346.129 193.785 345.903 193.917C345.634 194.072 345.329 194.149 344.989 194.149C344.556 194.149 344.197 194.026 343.913 193.78C343.631 193.531 343.491 193.18 343.491 192.726C343.491 192.137 343.718 191.71 344.172 191.447C344.421 191.303 344.787 191.201 345.271 191.139L345.697 191.086C345.928 191.057 346.094 191.021 346.193 190.977C346.372 190.9 346.462 190.782 346.462 190.621C346.462 190.424 346.393 190.29 346.255 190.216C346.12 190.14 345.921 190.102 345.657 190.102C345.361 190.102 345.152 190.175 345.029 190.322C344.941 190.43 344.882 190.577 344.853 190.761H343.645C343.671 190.342 343.788 189.998 343.996 189.729ZM344.928 193.095C345.045 193.191 345.189 193.24 345.359 193.24C345.628 193.24 345.876 193.161 346.101 193.002C346.33 192.844 346.448 192.556 346.457 192.137V191.671C346.378 191.721 346.297 191.762 346.215 191.794C346.136 191.823 346.026 191.851 345.886 191.877L345.605 191.93C345.341 191.977 345.152 192.034 345.038 192.102C344.844 192.216 344.748 192.393 344.748 192.633C344.748 192.847 344.808 193.001 344.928 193.095ZM352.216 189.43C352.591 189.67 352.806 190.083 352.862 190.669H351.61C351.592 190.508 351.547 190.38 351.473 190.287C351.336 190.117 351.101 190.032 350.77 190.032C350.498 190.032 350.303 190.074 350.186 190.159C350.072 190.244 350.014 190.344 350.014 190.458C350.014 190.602 350.076 190.706 350.199 190.77C350.322 190.837 350.757 190.953 351.504 191.117C352.002 191.234 352.376 191.412 352.625 191.649C352.871 191.889 352.994 192.189 352.994 192.55C352.994 193.024 352.817 193.413 352.462 193.714C352.111 194.013 351.566 194.163 350.827 194.163C350.074 194.163 349.518 194.004 349.157 193.688C348.8 193.369 348.621 192.963 348.621 192.471H349.891C349.918 192.693 349.975 192.852 350.063 192.945C350.218 193.112 350.505 193.196 350.924 193.196C351.17 193.196 351.365 193.159 351.509 193.086C351.655 193.013 351.728 192.903 351.728 192.756C351.728 192.616 351.67 192.509 351.553 192.436C351.435 192.362 351 192.236 350.247 192.058C349.705 191.923 349.323 191.754 349.1 191.552C348.878 191.353 348.766 191.066 348.766 190.691C348.766 190.249 348.939 189.869 349.285 189.553C349.634 189.233 350.123 189.074 350.753 189.074C351.35 189.074 351.838 189.192 352.216 189.43ZM358.116 192.594C358.083 192.878 357.935 193.167 357.672 193.459C357.262 193.925 356.687 194.158 355.949 194.158C355.34 194.158 354.802 193.962 354.336 193.569C353.871 193.177 353.638 192.538 353.638 191.653C353.638 190.824 353.847 190.188 354.266 189.746C354.688 189.304 355.234 189.083 355.905 189.083C356.304 189.083 356.663 189.157 356.982 189.307C357.301 189.456 357.565 189.692 357.773 190.014C357.96 190.298 358.082 190.628 358.138 191.003C358.17 191.223 358.183 191.539 358.177 191.952H354.899C354.916 192.433 355.067 192.77 355.352 192.963C355.524 193.083 355.732 193.143 355.976 193.143C356.233 193.143 356.443 193.07 356.604 192.923C356.692 192.844 356.769 192.734 356.837 192.594H358.116ZM356.876 191.126C356.856 190.795 356.755 190.544 356.573 190.375C356.394 190.202 356.172 190.115 355.905 190.115C355.615 190.115 355.39 190.206 355.228 190.388C355.07 190.569 354.971 190.815 354.93 191.126H356.876Z" fill="#222222"/>
<path d="M217.157 281.671H215.781V284H214.437V277.522H217.258C217.908 277.522 218.427 277.689 218.814 278.023C219.2 278.357 219.394 278.875 219.394 279.575C219.394 280.339 219.2 280.88 218.814 281.196C218.427 281.513 217.875 281.671 217.157 281.671ZM217.79 280.322C217.966 280.167 218.053 279.92 218.053 279.583C218.053 279.247 217.964 279.006 217.785 278.863C217.61 278.719 217.362 278.647 217.043 278.647H215.781V280.555H217.043C217.362 280.555 217.611 280.477 217.79 280.322ZM223.47 283.323C223.458 283.338 223.429 283.382 223.382 283.455C223.335 283.528 223.279 283.593 223.215 283.648C223.018 283.824 222.828 283.944 222.643 284.009C222.462 284.073 222.248 284.105 222.002 284.105C221.293 284.105 220.815 283.851 220.569 283.341C220.432 283.06 220.363 282.645 220.363 282.097V279.21H221.646V282.097C221.646 282.37 221.678 282.575 221.743 282.712C221.857 282.956 222.081 283.077 222.415 283.077C222.843 283.077 223.136 282.904 223.294 282.559C223.376 282.371 223.417 282.124 223.417 281.816V279.21H224.687V284H223.47V283.323ZM228.591 284.127C228.196 284.127 227.878 284.048 227.638 283.89C227.494 283.796 227.339 283.632 227.172 283.398V284H225.946V277.531H227.194V279.834C227.352 279.611 227.526 279.441 227.717 279.324C227.942 279.178 228.23 279.104 228.578 279.104C229.208 279.104 229.7 279.332 230.055 279.786C230.412 280.24 230.591 280.826 230.591 281.543C230.591 282.288 230.415 282.904 230.064 283.394C229.712 283.883 229.221 284.127 228.591 284.127ZM229.277 281.675C229.277 281.335 229.233 281.054 229.145 280.832C228.978 280.41 228.67 280.199 228.222 280.199C227.768 280.199 227.456 280.405 227.286 280.818C227.198 281.038 227.154 281.322 227.154 281.671C227.154 282.081 227.245 282.421 227.427 282.69C227.608 282.96 227.885 283.095 228.257 283.095C228.58 283.095 228.83 282.964 229.009 282.704C229.188 282.443 229.277 282.1 229.277 281.675ZM231.608 277.522H232.861V284H231.608V277.522ZM235.464 279.21V284H234.194V279.21H235.464ZM235.464 277.483V278.639H234.194V277.483H235.464ZM240.916 280.928H239.632C239.609 280.75 239.549 280.588 239.452 280.445C239.312 280.251 239.093 280.155 238.797 280.155C238.376 280.155 238.087 280.364 237.932 280.783C237.85 281.006 237.809 281.302 237.809 281.671C237.809 282.022 237.85 282.305 237.932 282.519C238.081 282.917 238.362 283.117 238.775 283.117C239.068 283.117 239.276 283.038 239.399 282.879C239.522 282.721 239.597 282.516 239.624 282.264H240.902C240.873 282.645 240.735 283.005 240.489 283.345C240.097 283.893 239.515 284.167 238.745 284.167C237.974 284.167 237.407 283.938 237.044 283.481C236.681 283.024 236.499 282.431 236.499 281.702C236.499 280.878 236.7 280.238 237.101 279.781C237.502 279.324 238.056 279.096 238.762 279.096C239.363 279.096 239.854 279.23 240.234 279.5C240.618 279.77 240.845 280.246 240.916 280.928ZM244.462 277.522H245.806V284H244.462V277.522ZM249.913 281.671H248.538V284H247.193V277.522H250.014C250.665 277.522 251.183 277.689 251.57 278.023C251.957 278.357 252.15 278.875 252.15 279.575C252.15 280.339 251.957 280.88 251.57 281.196C251.183 281.513 250.631 281.671 249.913 281.671ZM250.546 280.322C250.722 280.167 250.81 279.92 250.81 279.583C250.81 279.247 250.72 279.006 250.542 278.863C250.366 278.719 250.118 278.647 249.799 278.647H248.538V280.555H249.799C250.118 280.555 250.367 280.477 250.546 280.322Z" fill="#222222"/>
<path d="M273.595 277.522H274.949V282.835H278.157V284H273.595V277.522ZM280.374 279.21V284H279.104V279.21H280.374ZM280.374 277.483V278.639H279.104V277.483H280.374ZM283.935 280.137C283.511 280.137 283.219 280.317 283.061 280.678C282.979 280.868 282.938 281.111 282.938 281.407V284H281.69V279.219H282.898V279.917C283.059 279.671 283.212 279.494 283.355 279.386C283.613 279.192 283.94 279.096 284.335 279.096C284.83 279.096 285.235 279.226 285.548 279.487C285.865 279.745 286.023 280.174 286.023 280.774V284H284.74V281.086C284.74 280.834 284.706 280.641 284.639 280.506C284.516 280.26 284.281 280.137 283.935 280.137ZM290.345 283.323C290.333 283.338 290.304 283.382 290.257 283.455C290.21 283.528 290.154 283.593 290.09 283.648C289.894 283.824 289.703 283.944 289.519 284.009C289.337 284.073 289.123 284.105 288.877 284.105C288.168 284.105 287.69 283.851 287.444 283.341C287.307 283.06 287.238 282.645 287.238 282.097V279.21H288.521V282.097C288.521 282.37 288.553 282.575 288.618 282.712C288.732 282.956 288.956 283.077 289.29 283.077C289.718 283.077 290.011 282.904 290.169 282.559C290.251 282.371 290.292 282.124 290.292 281.816V279.21H291.562V284H290.345V283.323ZM297.132 284H295.572L294.746 282.563L293.915 284H292.395L294.029 281.574L292.465 279.219H293.999L294.799 280.607L295.581 279.219H297.071L295.497 281.552L297.132 284Z" fill="#222222"/>
<path d="M325.235 284H322.445V277.522H325.235C325.637 277.528 325.971 277.575 326.237 277.663C326.691 277.812 327.059 278.086 327.34 278.485C327.566 278.807 327.72 279.156 327.802 279.531C327.884 279.906 327.925 280.263 327.925 280.603C327.925 281.464 327.752 282.194 327.406 282.792C326.937 283.597 326.214 284 325.235 284ZM326.242 279.175C326.034 278.823 325.622 278.647 325.007 278.647H323.759V282.875H325.007C325.645 282.875 326.091 282.56 326.343 281.93C326.48 281.584 326.549 281.173 326.549 280.695C326.549 280.036 326.447 279.529 326.242 279.175ZM329.118 279.729C329.449 279.307 330.017 279.096 330.823 279.096C331.347 279.096 331.813 279.2 332.22 279.408C332.627 279.616 332.831 280.008 332.831 280.585V282.783C332.831 282.935 332.834 283.12 332.84 283.336C332.849 283.5 332.874 283.612 332.915 283.67C332.956 283.729 333.017 283.777 333.099 283.815V284H331.737C331.699 283.903 331.672 283.812 331.658 283.728C331.643 283.643 331.631 283.546 331.623 283.438C331.45 283.625 331.25 283.785 331.025 283.917C330.755 284.072 330.451 284.149 330.111 284.149C329.677 284.149 329.318 284.026 329.034 283.78C328.753 283.531 328.612 283.18 328.612 282.726C328.612 282.137 328.839 281.71 329.293 281.447C329.542 281.303 329.909 281.201 330.392 281.139L330.818 281.086C331.05 281.057 331.215 281.021 331.315 280.977C331.494 280.9 331.583 280.782 331.583 280.621C331.583 280.424 331.514 280.29 331.376 280.216C331.242 280.14 331.042 280.102 330.779 280.102C330.483 280.102 330.273 280.175 330.15 280.322C330.062 280.43 330.004 280.577 329.975 280.761H328.766C328.792 280.342 328.91 279.998 329.118 279.729ZM330.049 283.095C330.166 283.191 330.31 283.24 330.48 283.24C330.749 283.24 330.997 283.161 331.223 283.002C331.451 282.844 331.57 282.556 331.579 282.137V281.671C331.499 281.721 331.419 281.762 331.337 281.794C331.258 281.823 331.148 281.851 331.007 281.877L330.726 281.93C330.462 281.977 330.273 282.034 330.159 282.102C329.966 282.216 329.869 282.393 329.869 282.633C329.869 282.847 329.929 283.001 330.049 283.095ZM336.23 283.108V284.044L335.637 284.066C335.045 284.086 334.641 283.984 334.424 283.758C334.283 283.615 334.213 283.394 334.213 283.095V280.146H333.545V279.254H334.213V277.918H335.452V279.254H336.23V280.146H335.452V282.677C335.452 282.874 335.477 282.997 335.527 283.046C335.577 283.093 335.729 283.117 335.984 283.117C336.022 283.117 336.062 283.117 336.103 283.117C336.147 283.114 336.189 283.111 336.23 283.108ZM337.304 279.729C337.636 279.307 338.204 279.096 339.01 279.096C339.534 279.096 340 279.2 340.407 279.408C340.814 279.616 341.018 280.008 341.018 280.585V282.783C341.018 282.935 341.021 283.12 341.027 283.336C341.035 283.5 341.06 283.612 341.101 283.67C341.142 283.729 341.204 283.777 341.286 283.815V284H339.924C339.886 283.903 339.859 283.812 339.845 283.728C339.83 283.643 339.818 283.546 339.809 283.438C339.637 283.625 339.437 283.785 339.212 283.917C338.942 284.072 338.637 284.149 338.298 284.149C337.864 284.149 337.505 284.026 337.221 283.78C336.94 283.531 336.799 283.18 336.799 282.726C336.799 282.137 337.026 281.71 337.48 281.447C337.729 281.303 338.096 281.201 338.579 281.139L339.005 281.086C339.237 281.057 339.402 281.021 339.502 280.977C339.68 280.9 339.77 280.782 339.77 280.621C339.77 280.424 339.701 280.29 339.563 280.216C339.429 280.14 339.229 280.102 338.966 280.102C338.67 280.102 338.46 280.175 338.337 280.322C338.249 280.43 338.191 280.577 338.161 280.761H336.953C336.979 280.342 337.096 279.998 337.304 279.729ZM338.236 283.095C338.353 283.191 338.497 283.24 338.667 283.24C338.936 283.24 339.184 283.161 339.409 283.002C339.638 282.844 339.757 282.556 339.765 282.137V281.671C339.686 281.721 339.606 281.762 339.524 281.794C339.445 281.823 339.335 281.851 339.194 281.877L338.913 281.93C338.649 281.977 338.46 282.034 338.346 282.102C338.153 282.216 338.056 282.393 338.056 282.633C338.056 282.847 338.116 283.001 338.236 283.095ZM344.826 284.127C344.43 284.127 344.112 284.048 343.872 283.89C343.728 283.796 343.573 283.632 343.406 283.398V284H342.18V277.531H343.428V279.834C343.586 279.611 343.761 279.441 343.951 279.324C344.177 279.178 344.464 279.104 344.812 279.104C345.442 279.104 345.935 279.332 346.289 279.786C346.646 280.24 346.825 280.826 346.825 281.543C346.825 282.288 346.649 282.904 346.298 283.394C345.946 283.883 345.456 284.127 344.826 284.127ZM345.511 281.675C345.511 281.335 345.467 281.054 345.379 280.832C345.212 280.41 344.905 280.199 344.456 280.199C344.002 280.199 343.69 280.405 343.52 280.818C343.433 281.038 343.389 281.322 343.389 281.671C343.389 282.081 343.479 282.421 343.661 282.69C343.843 282.96 344.12 283.095 344.492 283.095C344.814 283.095 345.064 282.964 345.243 282.704C345.422 282.443 345.511 282.1 345.511 281.675ZM347.996 279.729C348.327 279.307 348.896 279.096 349.701 279.096C350.226 279.096 350.692 279.2 351.099 279.408C351.506 279.616 351.71 280.008 351.71 280.585V282.783C351.71 282.935 351.713 283.12 351.718 283.336C351.727 283.5 351.752 283.612 351.793 283.67C351.834 283.729 351.896 283.777 351.978 283.815V284H350.615C350.577 283.903 350.551 283.812 350.536 283.728C350.522 283.643 350.51 283.546 350.501 283.438C350.328 283.625 350.129 283.785 349.903 283.917C349.634 284.072 349.329 284.149 348.989 284.149C348.556 284.149 348.197 284.026 347.913 283.78C347.631 283.531 347.491 283.18 347.491 282.726C347.491 282.137 347.718 281.71 348.172 281.447C348.421 281.303 348.787 281.201 349.271 281.139L349.697 281.086C349.928 281.057 350.094 281.021 350.193 280.977C350.372 280.9 350.462 280.782 350.462 280.621C350.462 280.424 350.393 280.29 350.255 280.216C350.12 280.14 349.921 280.102 349.657 280.102C349.361 280.102 349.152 280.175 349.029 280.322C348.941 280.43 348.882 280.577 348.853 280.761H347.645C347.671 280.342 347.788 279.998 347.996 279.729ZM348.928 283.095C349.045 283.191 349.189 283.24 349.359 283.24C349.628 283.24 349.876 283.161 350.101 283.002C350.33 282.844 350.448 282.556 350.457 282.137V281.671C350.378 281.721 350.297 281.762 350.215 281.794C350.136 281.823 350.026 281.851 349.886 281.877L349.605 281.93C349.341 281.977 349.152 282.034 349.038 282.102C348.844 282.216 348.748 282.393 348.748 282.633C348.748 282.847 348.808 283.001 348.928 283.095ZM356.216 279.43C356.591 279.67 356.806 280.083 356.862 280.669H355.61C355.592 280.508 355.547 280.38 355.473 280.287C355.336 280.117 355.101 280.032 354.77 280.032C354.498 280.032 354.303 280.074 354.186 280.159C354.072 280.244 354.014 280.344 354.014 280.458C354.014 280.602 354.076 280.706 354.199 280.77C354.322 280.837 354.757 280.953 355.504 281.117C356.002 281.234 356.376 281.412 356.625 281.649C356.871 281.889 356.994 282.189 356.994 282.55C356.994 283.024 356.817 283.413 356.462 283.714C356.111 284.013 355.566 284.163 354.827 284.163C354.074 284.163 353.518 284.004 353.157 283.688C352.8 283.369 352.621 282.963 352.621 282.471H353.891C353.918 282.693 353.975 282.852 354.063 282.945C354.218 283.112 354.505 283.196 354.924 283.196C355.17 283.196 355.365 283.159 355.509 283.086C355.655 283.013 355.728 282.903 355.728 282.756C355.728 282.616 355.67 282.509 355.553 282.436C355.435 282.362 355 282.236 354.247 282.058C353.705 281.923 353.323 281.754 353.1 281.552C352.878 281.353 352.766 281.066 352.766 280.691C352.766 280.249 352.939 279.869 353.285 279.553C353.634 279.233 354.123 279.074 354.753 279.074C355.35 279.074 355.838 279.192 356.216 279.43ZM362.116 282.594C362.083 282.878 361.935 283.167 361.672 283.459C361.262 283.925 360.687 284.158 359.949 284.158C359.34 284.158 358.802 283.962 358.336 283.569C357.871 283.177 357.638 282.538 357.638 281.653C357.638 280.824 357.847 280.188 358.266 279.746C358.688 279.304 359.234 279.083 359.905 279.083C360.304 279.083 360.663 279.157 360.982 279.307C361.301 279.456 361.565 279.692 361.773 280.014C361.96 280.298 362.082 280.628 362.138 281.003C362.17 281.223 362.183 281.539 362.177 281.952H358.899C358.916 282.433 359.067 282.77 359.352 282.963C359.524 283.083 359.732 283.143 359.976 283.143C360.233 283.143 360.443 283.07 360.604 282.923C360.692 282.844 360.769 282.734 360.837 282.594H362.116ZM360.876 281.126C360.856 280.795 360.755 280.544 360.573 280.375C360.394 280.202 360.172 280.115 359.905 280.115C359.615 280.115 359.39 280.206 359.228 280.388C359.07 280.569 358.971 280.815 358.93 281.126H360.876Z" fill="#222222"/>
<path d="M152.015 244.488C151.882 244.329 151.692 244.25 151.445 244.25C151.106 244.25 150.876 244.376 150.754 244.629C150.683 244.775 150.642 245.007 150.629 245.324H149.547C149.565 244.842 149.652 244.453 149.808 244.156C150.105 243.591 150.632 243.309 151.39 243.309C151.989 243.309 152.466 243.475 152.82 243.809C153.174 244.139 153.351 244.578 153.351 245.125C153.351 245.544 153.226 245.917 152.976 246.242C152.812 246.458 152.543 246.699 152.168 246.965L151.722 247.281C151.444 247.479 151.252 247.622 151.148 247.711C151.047 247.799 150.961 247.902 150.89 248.02H153.363V249H149.484C149.494 248.594 149.582 248.223 149.746 247.887C149.905 247.509 150.28 247.109 150.871 246.688C151.384 246.32 151.716 246.057 151.867 245.898C152.099 245.651 152.215 245.38 152.215 245.086C152.215 244.846 152.148 244.647 152.015 244.488ZM156.548 244.488C156.416 244.329 156.225 244.25 155.978 244.25C155.64 244.25 155.409 244.376 155.287 244.629C155.216 244.775 155.175 245.007 155.162 245.324H154.08C154.098 244.842 154.185 244.453 154.341 244.156C154.638 243.591 155.166 243.309 155.923 243.309C156.522 243.309 156.999 243.475 157.353 243.809C157.707 244.139 157.884 244.578 157.884 245.125C157.884 245.544 157.759 245.917 157.509 246.242C157.345 246.458 157.076 246.699 156.701 246.965L156.255 247.281C155.977 247.479 155.785 247.622 155.681 247.711C155.58 247.799 155.494 247.902 155.423 248.02H157.896V249H154.017C154.028 248.594 154.115 248.223 154.279 247.887C154.438 247.509 154.813 247.109 155.404 246.688C155.917 246.32 156.249 246.057 156.4 245.898C156.632 245.651 156.748 245.38 156.748 245.086C156.748 244.846 156.681 244.647 156.548 244.488ZM159.894 249.398C159.847 249.591 159.76 249.758 159.632 249.898C159.494 250.049 159.332 250.163 159.144 250.238C158.959 250.316 158.832 250.355 158.761 250.355V249.926C158.985 249.863 159.149 249.759 159.253 249.613C159.36 249.467 159.421 249.263 159.437 249H158.761V247.836H159.964V248.844C159.964 249.021 159.941 249.206 159.894 249.398ZM163.613 248.645C163.287 248.311 163.124 247.906 163.124 247.43C163.124 247.112 163.196 246.824 163.339 246.566C163.485 246.309 163.697 246.115 163.976 245.984C163.702 245.802 163.524 245.605 163.441 245.395C163.36 245.181 163.32 244.982 163.32 244.797C163.32 244.385 163.475 244.035 163.785 243.746C164.094 243.454 164.532 243.309 165.097 243.309C165.662 243.309 166.1 243.454 166.41 243.746C166.719 244.035 166.874 244.385 166.874 244.797C166.874 244.982 166.833 245.181 166.749 245.395C166.669 245.605 166.492 245.789 166.218 245.945C166.497 246.102 166.706 246.309 166.847 246.566C166.988 246.824 167.058 247.112 167.058 247.43C167.058 247.906 166.881 248.312 166.527 248.648C166.175 248.982 165.683 249.148 165.05 249.148C164.417 249.148 163.938 248.98 163.613 248.645ZM164.281 247.355C164.281 247.634 164.352 247.85 164.495 248.004C164.641 248.158 164.842 248.234 165.097 248.234C165.352 248.234 165.551 248.158 165.695 248.004C165.84 247.85 165.913 247.634 165.913 247.355C165.913 247.066 165.839 246.848 165.691 246.699C165.545 246.548 165.347 246.473 165.097 246.473C164.847 246.473 164.648 246.548 164.499 246.699C164.354 246.848 164.281 247.066 164.281 247.355ZM164.574 245.426C164.699 245.556 164.873 245.621 165.097 245.621C165.324 245.621 165.498 245.556 165.62 245.426C165.745 245.296 165.808 245.128 165.808 244.922C165.808 244.698 165.745 244.523 165.62 244.398C165.498 244.271 165.324 244.207 165.097 244.207C164.873 244.207 164.697 244.271 164.57 244.398C164.445 244.523 164.382 244.698 164.382 244.922C164.382 245.128 164.446 245.296 164.574 245.426ZM170.228 244.488C170.095 244.329 169.905 244.25 169.657 244.25C169.319 244.25 169.088 244.376 168.966 244.629C168.896 244.775 168.854 245.007 168.841 245.324H167.759C167.777 244.842 167.865 244.453 168.021 244.156C168.318 243.591 168.845 243.309 169.603 243.309C170.202 243.309 170.678 243.475 171.032 243.809C171.387 244.139 171.564 244.578 171.564 245.125C171.564 245.544 171.439 245.917 171.189 246.242C171.025 246.458 170.755 246.699 170.38 246.965L169.935 247.281C169.656 247.479 169.465 247.622 169.361 247.711C169.259 247.799 169.173 247.902 169.103 248.02H171.575V249H167.697C167.707 248.594 167.794 248.223 167.958 247.887C168.117 247.509 168.492 247.109 169.083 246.688C169.596 246.32 169.928 246.057 170.079 245.898C170.311 245.651 170.427 245.38 170.427 245.086C170.427 244.846 170.361 244.647 170.228 244.488ZM174.183 249.141C173.461 249.141 172.955 248.888 172.663 248.383C172.374 247.878 172.23 247.158 172.23 246.223C172.23 245.288 172.374 244.566 172.663 244.059C172.955 243.551 173.461 243.297 174.183 243.297C174.904 243.297 175.411 243.551 175.702 244.059C175.991 244.566 176.136 245.288 176.136 246.223C176.136 247.158 175.99 247.878 175.698 248.383C175.409 248.888 174.904 249.141 174.183 249.141ZM174.835 247.715C174.937 247.371 174.987 246.874 174.987 246.223C174.987 245.54 174.935 245.035 174.831 244.707C174.73 244.379 174.514 244.215 174.183 244.215C173.852 244.215 173.633 244.379 173.527 244.707C173.42 245.035 173.366 245.54 173.366 246.223C173.366 246.874 173.42 247.372 173.527 247.719C173.633 248.062 173.852 248.234 174.183 248.234C174.514 248.234 174.731 248.061 174.835 247.715ZM178.716 249.141C177.995 249.141 177.488 248.888 177.196 248.383C176.907 247.878 176.763 247.158 176.763 246.223C176.763 245.288 176.907 244.566 177.196 244.059C177.488 243.551 177.995 243.297 178.716 243.297C179.437 243.297 179.944 243.551 180.235 244.059C180.525 244.566 180.669 245.288 180.669 246.223C180.669 247.158 180.523 247.878 180.232 248.383C179.942 248.888 179.437 249.141 178.716 249.141ZM179.368 247.715C179.47 247.371 179.521 246.874 179.521 246.223C179.521 245.54 179.469 245.035 179.364 244.707C179.263 244.379 179.047 244.215 178.716 244.215C178.385 244.215 178.166 244.379 178.06 244.707C177.953 245.035 177.9 245.54 177.9 246.223C177.9 246.874 177.953 247.372 178.06 247.719C178.166 248.062 178.385 248.234 178.716 248.234C179.047 248.234 179.264 248.061 179.368 247.715Z" fill="#222222"/>
<path d="M52.6 101.863C52.5989 101.985 52.6636 102.098 52.7694 102.159L55.2259 103.536L59.3765 105.929C59.5464 106.026 59.7627 105.969 59.8635 105.802L61.2612 103.43C61.3423 103.271 61.2868 103.077 61.1341 102.985L56.2635 100.232C56.1608 100.168 56.0971 100.057 56.0941 99.9356V78.0815C56.093 77.9594 56.1577 77.8461 56.2635 77.7851L61.1341 75.0321C61.2868 74.9403 61.3423 74.746 61.2612 74.5874L59.8635 72.2157C59.8224 72.1277 59.7474 72.0601 59.6557 72.0282C59.564 71.9963 59.4633 72.0028 59.3765 72.0462L55.3106 74.3968L52.7694 75.8157C52.6636 75.8767 52.5989 75.99 52.6 76.1121V101.863Z" fill="#949494"/>
<path d="M56.0729 77.9121L56.2 77.7851L61.0706 75.0321C61.1535 74.9973 61.2161 74.9267 61.2408 74.8403C61.2655 74.7538 61.2496 74.6608 61.1976 74.5874L59.8 72.2157C59.769 72.1244 59.6983 72.0521 59.6077 72.0191C59.5171 71.9862 59.4165 71.9962 59.3341 72.0462L55.247 74.3968L52.727 75.8157C52.727 75.8157 52.6212 75.8157 52.6 75.9427L54.5059 77.0227L56.0729 77.9121Z" fill="#A3A3A3"/>
<path d="M61.0706 102.943L56.2 100.19C56.1347 100.14 56.0836 100.075 56.0518 99.9991L52.6212 102.117H52.7271L55.1624 103.493L59.3977 105.844C59.4745 105.896 59.5703 105.912 59.6599 105.888C59.7495 105.863 59.8239 105.801 59.8636 105.717L61.2612 103.345C61.2949 103.267 61.2934 103.178 61.2569 103.101C61.2204 103.024 61.1525 102.966 61.0706 102.943Z" fill="#A3A3A3"/>
<path d="M88.6 101.863C88.6011 101.985 88.5364 102.098 88.4306 102.159L85.9741 103.536L81.8236 105.929C81.6536 106.026 81.4373 105.969 81.3365 105.802L79.9388 103.43C79.8577 103.271 79.9132 103.077 80.0659 102.985L84.9365 100.232C85.0392 100.168 85.1029 100.057 85.1059 99.9356V78.0815C85.107 77.9594 85.0423 77.8461 84.9365 77.7851L80.0659 75.0321C79.9132 74.9403 79.8577 74.746 79.9388 74.5874L81.3365 72.2157C81.3776 72.1277 81.4526 72.0601 81.5443 72.0282C81.636 71.9963 81.7367 72.0028 81.8236 72.0462L85.8894 74.3545L88.4306 75.7733C88.5364 75.8344 88.6011 75.9476 88.6 76.0698V101.863V101.863Z" fill="#949494"/>
<path d="M85.127 77.9121L85 77.7851L80.1294 75.0321C80.0465 74.9973 79.9839 74.9267 79.9592 74.8403C79.9345 74.7538 79.9503 74.6608 80.0023 74.5874L81.4 72.2157C81.4309 72.1244 81.5016 72.0521 81.5922 72.0191C81.6828 71.9862 81.7835 71.9962 81.8658 72.0462L85.9529 74.3545L88.4729 75.7733C88.4729 75.7733 88.4729 75.7733 88.6 75.9004L86.6941 76.9804L85.127 77.9121Z" fill="#A3A3A3"/>
<path d="M80.1293 102.943L84.9999 100.19C85.0652 100.14 85.1164 100.075 85.1482 99.9991L88.5787 102.117V102.117L86.1435 103.493L81.9082 105.844C81.8314 105.896 81.7356 105.912 81.6459 105.888C81.5563 105.863 81.4819 105.801 81.4423 105.717L80.0446 103.345C79.9602 103.21 79.9976 103.032 80.1293 102.943Z" fill="#A3A3A3"/>
<path d="M81.8447 82.4863V95.4886L70.5789 102.032V89.0086L81.8447 82.4863V82.4863Z" fill="#32BEDD"/>
<path d="M81.8447 82.4862L70.6 89.0297L59.3341 82.4862L70.6 75.9427L81.8447 82.4862V82.4862Z" fill="#9CEBFF"/>
<path d="M70.5788 89.0298V102.032L59.3341 95.4886V82.4863L70.5788 89.0298V89.0298Z" fill="#50E6FF"/>
<path d="M59.3341 95.4886L70.5788 89.0086V102.032L59.3341 95.4886V95.4886Z" fill="#9CEBFF"/>
<path d="M81.8447 95.4886L70.5789 89.0086V102.032L81.8447 95.4886V95.4886Z" fill="#50E6FF"/>
<rect x="40.6" y="19" width="30" height="22" fill="white" stroke="white" stroke-width="6"/>
<path d="M54.2546 42.3488C58.879 41.5323 62.6998 40.8587 62.7443 40.8494L62.8241 40.8327L58.4577 35.6479C56.0546 32.7958 54.0895 30.4521 54.0895 30.4372C54.0895 30.4112 58.5987 18.0172 58.6247 17.9727C58.6321 17.9578 61.7014 23.2465 66.0623 30.7917C70.1466 37.8562 73.5128 43.6811 73.5425 43.735L73.6 43.8352L45.8447 43.8314L54.2546 42.3488Z" fill="#0089D6"/>
<path d="M37.6 40.7677C37.6 40.7603 39.6579 37.1956 42.1723 32.844L46.7447 24.9352L52.0723 20.4704C55.0043 18.0154 57.4093 16.0038 57.4185 16.0001C57.4278 15.9964 57.3907 16.0929 57.3332 16.2154C57.2775 16.3378 54.6721 21.9123 51.5472 28.6038L45.8651 40.7696L41.7326 40.7752C39.4594 40.7789 37.6 40.7752 37.6 40.7677Z" fill="#0089D6"/>
<path d="M125.137 215.002C125.137 223.07 115.385 229.571 113.268 230.887C113.023 231.038 112.714 231.038 112.468 230.887C110.351 229.571 100.6 223.07 100.6 215.002V205.301C100.6 204.884 100.933 204.543 101.35 204.534C108.934 204.334 107.184 201 112.868 201C118.552 201 116.802 204.334 124.387 204.534C124.803 204.543 125.137 204.884 125.137 205.301V215.002Z" fill="#0078D4"/>
<path d="M124.12 215.085C124.12 222.486 115.185 228.42 113.235 229.654C113.009 229.788 112.728 229.788 112.502 229.654C110.551 228.454 101.617 222.486 101.617 215.085V206.184C101.617 205.804 101.92 205.493 102.3 205.484C109.251 205.301 107.651 202.25 112.868 202.25C118.086 202.25 116.485 205.301 123.436 205.484C123.817 205.493 124.12 205.804 124.12 206.184V215.085Z" fill="#6BB9F2"/>
<path fill-rule="evenodd" clip-rule="evenodd" d="M112.868 202.25V216.002H101.667C102.334 222.97 110.635 228.504 112.502 229.654C112.592 229.711 112.695 229.746 112.802 229.754H112.868V216.002H124.12C124.136 215.702 124.136 215.402 124.12 215.102V206.201C124.12 205.818 123.819 205.502 123.436 205.484C119.745 205.387 118.465 204.481 117.295 203.652C116.262 202.921 115.315 202.25 112.868 202.25Z" fill="url(#paint0_linear_0_655)"/>
<path d="M102.3 205.484C109.251 205.301 107.651 202.25 112.868 202.25V216.002H101.667C101.65 215.702 101.65 215.402 101.667 215.102V206.201C101.664 205.835 101.937 205.526 102.3 205.484Z" fill="#50E6FF"/>
<path d="M124.07 216.002H112.868V229.754V229.754C112.975 229.746 113.078 229.711 113.168 229.654C115.102 228.504 123.403 222.97 124.07 216.002Z" fill="#50E6FF"/>
<path fill-rule="evenodd" clip-rule="evenodd" d="M339.013 269L323.6 239H354.537L339.013 269ZM334.16 250.909H336.616V248.454H334.16V250.909ZM336.616 247.225H334.16V244.772H336.616V247.225ZM337.842 254.591H340.297V252.135H337.842V254.591ZM340.297 250.909H337.842V248.454H340.297V250.909ZM337.842 247.225H340.297V244.772H337.842V247.225ZM343.96 250.909H341.504V248.454H343.96V250.909ZM341.504 244.772V247.225H343.96V244.772H341.504Z" fill="#000001"/>
<path d="M217.6 248.388H247.6V265.118C247.6 265.673 247.15 266.124 246.594 266.124H218.606C218.05 266.124 217.6 265.673 217.6 265.118V248.388Z" fill="url(#paint1_linear_0_655)"/>
<path d="M218.606 242H246.594C247.15 242 247.6 242.45 247.6 243.006V248.388H217.6V242.988C217.61 242.44 218.057 242 218.606 242Z" fill="#767676"/>
<circle cx="239.341" cy="256.153" r="2.43529" fill="#F2F2F2"/>
<circle cx="232.706" cy="256.153" r="2.43529" fill="#F2F2F2"/>
<circle cx="225.859" cy="256.153" r="2.43529" fill="#F2F2F2"/>
<rect x="221.641" y="243.906" width="21.9353" height="2.57647" rx="0.28" fill="#F2F2F2"/>
<rect x="268.6" y="239" width="32.4714" height="21.6476" rx="0.6" fill="url(#paint2_linear_0_655)"/>
<path d="M290.248 246.667V252.963L284.836 256.138V249.824L290.248 246.667V246.667Z" fill="#50E6FF"/>
<path d="M290.248 246.667L284.854 249.842L279.424 246.667L284.854 243.51L290.248 246.667V246.667Z" fill="#C3F1FF"/>
<path d="M284.836 249.842V256.138L279.424 252.963V246.667L284.836 249.842V249.842Z" fill="#9CEBFF"/>
<path d="M279.424 252.963L284.836 249.824V256.138L279.424 252.963V252.963Z" fill="#C3F1FF"/>
<path d="M290.248 252.963L284.836 249.824V256.138L290.248 252.963V252.963Z" fill="#9CEBFF"/>
<path d="M291.348 267.196C288.137 266.691 288.011 264.382 288.029 260.648H281.589C281.589 264.382 281.589 266.691 278.323 267.196C277.412 267.306 276.729 268.082 276.736 269H292.972C292.93 268.088 292.25 267.333 291.348 267.196V267.196Z" fill="url(#paint3_linear_0_655)"/>
<path d="M277.403 241.165H272.442C271.785 241.165 271.252 241.698 271.252 242.355V247.334C271.252 247.663 271.518 247.93 271.847 247.93H272.244C272.573 247.93 272.839 247.663 272.839 247.334V242.734H277.403C277.725 242.724 277.981 242.461 277.981 242.139V241.76C277.981 241.438 277.725 241.174 277.403 241.165V241.165Z" fill="white"/>
<path d="M277.403 256.787H272.821V252.223C272.821 252.065 272.759 251.914 272.647 251.802C272.535 251.691 272.384 251.628 272.226 251.628H271.847C271.689 251.628 271.538 251.691 271.426 251.802C271.315 251.914 271.252 252.065 271.252 252.223V257.274C271.247 257.593 271.37 257.901 271.594 258.128C271.818 258.355 272.124 258.483 272.442 258.483H277.403C277.577 258.475 277.738 258.393 277.848 258.259C277.958 258.125 278.006 257.951 277.981 257.779V257.382C277.981 257.061 277.725 256.797 277.403 256.787V256.787Z" fill="white"/>
<path d="M297.301 241.219H292.412C292.084 241.219 291.817 241.485 291.817 241.814V242.193C291.802 242.36 291.858 242.526 291.971 242.649C292.084 242.773 292.245 242.843 292.412 242.842H296.976V247.37C296.976 247.699 297.243 247.966 297.572 247.966H297.987C298.315 247.966 298.582 247.699 298.582 247.37V242.409C298.583 242.077 298.445 241.76 298.202 241.534C297.959 241.308 297.632 241.194 297.301 241.219Z" fill="white"/>
<path d="M297.914 251.664H297.536C297.207 251.664 296.94 251.93 296.94 252.259V256.841H292.412C292.084 256.841 291.817 257.108 291.817 257.437V257.833C291.817 258.162 292.084 258.429 292.412 258.429H297.373C298.034 258.429 298.572 257.899 298.582 257.238V252.259C298.583 252.088 298.511 251.924 298.383 251.811C298.255 251.697 298.084 251.643 297.914 251.664V251.664Z" fill="white"/>
<rect x="268.6" y="149" width="32.3327" height="21.5488" rx="0.56" fill="url(#paint4_linear_0_655)"/>
<path d="M291.258 177.088C288.065 176.591 287.931 174.277 287.95 170.568H281.602C281.602 174.277 281.487 176.591 278.294 177.088C277.359 177.239 276.676 178.053 276.688 179H292.864C292.876 178.053 292.193 177.239 291.258 177.088Z" fill="url(#paint5_linear_0_655)"/>
<path fill-rule="evenodd" clip-rule="evenodd" d="M277.529 157.948C277.829 158.195 278.164 158.395 278.523 158.541C279.135 158.796 279.688 159.173 280.149 159.65C280.49 160.025 280.669 160.52 280.646 161.027C280.677 161.727 280.362 162.399 279.805 162.824C279.135 163.318 278.323 163.579 277.491 163.57C276.762 163.596 276.039 163.438 275.388 163.111V161.199C275.974 161.733 276.736 162.032 277.529 162.04C277.816 162.038 278.095 161.952 278.332 161.792C278.525 161.647 278.638 161.42 278.638 161.18C278.641 160.933 278.528 160.699 278.332 160.549C277.968 160.255 277.562 160.017 277.128 159.841C276.143 159.459 275.481 158.526 275.445 157.47C275.418 156.79 275.716 156.137 276.248 155.711C276.867 155.241 277.632 155.004 278.409 155.042C279.061 155.032 279.709 155.142 280.321 155.367V157.05C279.759 156.665 279.089 156.47 278.409 156.495C278.119 156.473 277.83 156.547 277.587 156.706C277.389 156.837 277.274 157.061 277.281 157.298C277.268 157.54 277.358 157.776 277.529 157.948ZM292.558 155.176V161.83H295.483V163.302H290.646V155.176H292.558ZM288.734 161.677C289.183 160.927 289.408 160.065 289.384 159.191C289.394 158.442 289.224 157.7 288.887 157.031C288.58 156.417 288.102 155.905 287.51 155.558C286.927 155.225 286.269 155.048 285.598 155.042C284.856 155.033 284.124 155.217 283.476 155.577C282.85 155.931 282.344 156.464 282.022 157.107C281.639 157.798 281.436 158.573 281.43 159.363C281.423 160.078 281.58 160.784 281.889 161.428C282.199 162.028 282.669 162.531 283.246 162.881C283.824 163.234 284.482 163.431 285.158 163.455L286.841 165.367H289.212L286.898 163.149C287.666 162.892 288.316 162.37 288.734 161.677ZM285.33 161.868C285.909 161.892 286.465 161.636 286.822 161.18H286.898C287.283 160.614 287.452 159.929 287.376 159.249C287.408 158.57 287.22 157.9 286.841 157.337C286.5 156.868 285.947 156.602 285.369 156.629C284.777 156.615 284.212 156.877 283.839 157.337C283.435 157.89 283.233 158.564 283.265 159.249C283.23 159.933 283.432 160.609 283.839 161.161C284.188 161.63 284.747 161.895 285.33 161.868Z" fill="url(#paint6_radial_0_655)"/>
<path d="M337.912 157.188C331.665 157.188 326.6 155.424 326.6 153.094V174.906C326.6 177.147 331.576 178.965 337.753 179H337.912C344.159 179 349.224 177.235 349.224 174.906V153.094C349.224 155.371 344.159 157.188 337.912 157.188Z" fill="url(#paint7_linear_0_655)"/>
<path d="M349.224 153.094C349.224 155.371 344.159 157.188 337.912 157.188C331.665 157.188 326.6 155.424 326.6 153.094C326.6 150.765 331.665 149 337.912 149C344.159 149 349.224 150.765 349.224 153.094" fill="#E8E8E8"/>
<path d="M346.594 152.759C346.594 154.206 342.694 155.371 337.912 155.371C333.129 155.371 329.229 154.206 329.229 152.759C329.229 151.312 333.129 150.165 337.912 150.165C342.694 150.165 346.594 151.329 346.594 152.759" fill="#50E6FF"/>
<path d="M337.912 153.412C335.583 153.352 333.261 153.692 331.047 154.418C333.263 155.129 335.586 155.452 337.912 155.371C340.243 155.439 342.567 155.092 344.776 154.347C342.556 153.655 340.236 153.339 337.912 153.412Z" fill="#198AB3"/>
<path fill-rule="evenodd" clip-rule="evenodd" d="M331.294 164.741C331.562 164.972 331.866 165.156 332.194 165.288C332.747 165.517 333.246 165.86 333.659 166.294C333.952 166.638 334.108 167.078 334.1 167.529C334.17 168.127 333.954 168.722 333.518 169.135C332.908 169.556 332.175 169.761 331.435 169.718C330.78 169.74 330.13 169.595 329.547 169.294V167.653C330.077 168.125 330.761 168.388 331.471 168.394C331.748 168.408 332.024 168.341 332.265 168.2C332.442 168.074 332.547 167.87 332.547 167.653C332.546 167.435 332.449 167.228 332.282 167.088C331.945 166.832 331.578 166.618 331.188 166.453C329.988 165.924 329.423 165.218 329.423 164.318C329.404 163.705 329.68 163.121 330.165 162.747C330.713 162.323 331.396 162.11 332.088 162.147C332.689 162.124 333.289 162.22 333.853 162.429V163.947C333.337 163.587 332.717 163.407 332.088 163.435C331.825 163.422 331.564 163.497 331.347 163.647C331.172 163.765 331.071 163.966 331.082 164.176C331.074 164.386 331.15 164.589 331.294 164.741ZM344.794 162.235V168.235H347.547V169.524H343.206V162.235H344.794ZM341.441 168.094C341.842 167.423 342.044 166.652 342.023 165.871C341.984 165.209 341.784 164.567 341.441 164C341.166 163.449 340.737 162.989 340.206 162.676C339.668 162.372 339.059 162.213 338.441 162.218C337.775 162.203 337.116 162.368 336.535 162.694C335.99 162.998 335.544 163.451 335.247 164C334.935 164.624 334.777 165.314 334.788 166.012C334.792 166.625 334.937 167.229 335.212 167.776C335.481 168.322 335.904 168.776 336.429 169.082C336.962 169.407 337.57 169.59 338.194 169.612L339.712 171.376H341.847L339.676 169.435C340.407 169.216 341.034 168.74 341.441 168.094ZM338.335 168.271C338.854 168.286 339.351 168.057 339.676 167.653C340.056 167.14 340.232 166.505 340.171 165.871C340.209 165.246 340.042 164.626 339.694 164.106C339.393 163.677 338.894 163.43 338.371 163.453C337.837 163.451 337.33 163.691 336.994 164.106C336.622 164.616 336.441 165.241 336.482 165.871C336.44 166.501 336.621 167.126 336.994 167.635C337.313 168.051 337.812 168.287 338.335 168.271Z" fill="url(#paint8_radial_0_655)"/>
<path d="M217.6 158.388H247.6V175.118C247.6 175.673 247.15 176.124 246.594 176.124H218.606C218.05 176.124 217.6 175.673 217.6 175.118V158.388Z" fill="url(#paint9_linear_0_655)"/>
<path d="M218.606 152H246.594C247.15 152 247.6 152.45 247.6 153.006V158.388H217.6V152.988C217.61 152.44 218.057 152 218.606 152Z" fill="#767676"/>
<circle cx="239.341" cy="166.153" r="2.43529" fill="#F2F2F2"/>
<circle cx="232.706" cy="166.153" r="2.43529" fill="#F2F2F2"/>
<circle cx="225.859" cy="166.153" r="2.43529" fill="#F2F2F2"/>
<rect x="221.641" y="153.906" width="21.9353" height="2.57647" rx="0.28" fill="#F2F2F2"/>
<circle cx="239.879" cy="103.715" r="2.25692" fill="url(#paint10_linear_0_655)"/>
<circle cx="232.68" cy="103.734" r="2.25692" fill="url(#paint11_linear_0_655)"/>
<circle cx="225.482" cy="103.734" r="2.25692" fill="url(#paint12_linear_0_655)"/>
<path d="M227.12 112.757L225.829 114.052C225.601 114.281 225.231 114.281 225.003 114.054L215.442 104.519C214.985 104.064 214.984 103.325 215.44 102.868L216.731 101.573L227.119 111.932C227.347 112.16 227.348 112.529 227.12 112.757Z" fill="#50E6FF"/>
<path d="M225.633 93.4386L226.928 94.7301C227.156 94.9577 227.157 95.3272 226.929 95.5555L216.722 105.792L215.427 104.5C214.97 104.045 214.969 103.306 215.424 102.849L224.808 93.4398C225.035 93.2115 225.405 93.211 225.633 93.4386Z" fill="#1490DF"/>
<path d="M248.472 101.555L249.764 102.851C250.219 103.307 250.218 104.046 249.761 104.501L240.2 114.036C240.091 114.145 239.942 114.206 239.787 114.206C239.632 114.206 239.484 114.144 239.375 114.035L238.083 112.74C237.856 112.511 237.856 112.142 238.084 111.914L248.472 101.555V101.555Z" fill="#50E6FF"/>
<path d="M249.76 104.488L248.465 105.779L238.257 95.5427C238.029 95.3145 238.03 94.9449 238.258 94.7173L239.567 93.4121C239.795 93.1845 240.165 93.185 240.392 93.4133L249.776 102.823C250.231 103.279 250.23 104.019 249.773 104.474L249.76 104.488Z" fill="#1490DF"/>
<defs>
<linearGradient id="paint0_linear_0_655" x1="101.652" y1="202.25" x2="101.652" y2="229.754" gradientUnits="userSpaceOnUse">
<stop stop-color="#5EA0EF"/>
<stop offset="0.18" stop-color="#559CEC"/>
<stop offset="0.47" stop-color="#3C91E5"/>
<stop offset="0.84" stop-color="#1380DA"/>
<stop offset="1" stop-color="#0078D4"/>
</linearGradient>
<linearGradient id="paint1_linear_0_655" x1="247.585" y1="266.106" x2="247.585" y2="248.388" gradientUnits="userSpaceOnUse">
<stop stop-color="#32BEDD"/>
<stop offset="0.18" stop-color="#32CAEA"/>
<stop offset="0.41" stop-color="#32D2F2"/>
<stop offset="0.78" stop-color="#32D4F5"/>
</linearGradient>
<linearGradient id="paint2_linear_0_655" x1="301.071" y1="260.648" x2="301.071" y2="239" gradientUnits="userSpaceOnUse">
<stop stop-color="#0078D4"/>
<stop offset="0.82" stop-color="#5EA0EF"/>
</linearGradient>
<linearGradient id="paint3_linear_0_655" x1="292.972" y1="269" x2="292.972" y2="260.648" gradientUnits="userSpaceOnUse">
<stop stop-color="#1490DF"/>
<stop offset="0.98" stop-color="#1F56A3"/>
</linearGradient>
<linearGradient id="paint4_linear_0_655" x1="300.957" y1="170.568" x2="300.957" y2="149" gradientUnits="userSpaceOnUse">
<stop stop-color="#0078D4"/>
<stop offset="0.82" stop-color="#5EA0EF"/>
</linearGradient>
<linearGradient id="paint5_linear_0_655" x1="292.772" y1="178.904" x2="292.772" y2="170.568" gradientUnits="userSpaceOnUse">
<stop offset="0.15" stop-color="#CCCCCC"/>
<stop offset="1" stop-color="#707070"/>
</linearGradient>
<radialGradient id="paint6_radial_0_655" cx="0" cy="0" r="1" gradientUnits="userSpaceOnUse" gradientTransform="translate(285.598 160.185) scale(13.9006 7.14476)">
<stop stop-color="#F2F2F2"/>
<stop offset="0.58" stop-color="#EEEEEE"/>
<stop offset="1" stop-color="#E6E6E6"/>
</radialGradient>
<linearGradient id="paint7_linear_0_655" x1="326.6" y1="179" x2="349.224" y2="179" gradientUnits="userSpaceOnUse">
<stop stop-color="#005BA1"/>
<stop offset="0.07" stop-color="#0060A9"/>
<stop offset="0.36" stop-color="#0071C8"/>
<stop offset="0.52" stop-color="#0078D4"/>
<stop offset="0.64" stop-color="#0074CD"/>
<stop offset="0.82" stop-color="#006ABB"/>
<stop offset="1" stop-color="#005BA1"/>
</linearGradient>
<radialGradient id="paint8_radial_0_655" cx="0" cy="0" r="1" gradientUnits="userSpaceOnUse" gradientTransform="translate(338.547 166.771) scale(12.4765 6.35612)">
<stop stop-color="#F2F2F2"/>
<stop offset="0.58" stop-color="#EEEEEE"/>
<stop offset="1" stop-color="#E6E6E6"/>
</radialGradient>
<linearGradient id="paint9_linear_0_655" x1="247.585" y1="176.106" x2="247.585" y2="158.388" gradientUnits="userSpaceOnUse">
<stop stop-color="#32BEDD"/>
<stop offset="0.18" stop-color="#32CAEA"/>
<stop offset="0.41" stop-color="#32D2F2"/>
<stop offset="0.78" stop-color="#32D4F5"/>
</linearGradient>
<linearGradient id="paint10_linear_0_655" x1="236.694" y1="103.729" x2="239.89" y2="106.916" gradientUnits="userSpaceOnUse">
<stop stop-color="#86D633"/>
<stop offset="1" stop-color="#5E9624"/>
</linearGradient>
<linearGradient id="paint11_linear_0_655" x1="225.52" y1="104.522" x2="228.692" y2="107.713" gradientUnits="userSpaceOnUse">
<stop stop-color="#86D633"/>
<stop offset="1" stop-color="#5E9624"/>
</linearGradient>
<linearGradient id="paint12_linear_0_655" x1="218.322" y1="104.522" x2="221.493" y2="107.713" gradientUnits="userSpaceOnUse">
<stop stop-color="#86D633"/>
<stop offset="1" stop-color="#5E9624"/>
</linearGradient>
</defs>
</svg>
