<svg width="375" height="300" viewBox="0 0 375 300" fill="none" xmlns="http://www.w3.org/2000/svg">
<rect width="375" height="300" fill="white"/>
<rect x="75" y="38" width="225" height="225" rx="5" fill="white"/>
<rect x="73" y="36" width="229" height="229" rx="7" stroke="#979797" stroke-opacity="0.5" stroke-width="4"/>
<rect x="160" y="80" width="100" height="100" rx="5" fill="white"/>
<rect x="158" y="78" width="104" height="104" rx="7" stroke="#979797" stroke-opacity="0.5" stroke-width="4"/>
<rect x="140" y="101" width="100" height="100" rx="5" fill="white"/>
<rect x="138" y="99" width="104" height="104" rx="7" stroke="#979797" stroke-opacity="0.5" stroke-width="4"/>
<rect x="116" y="121" width="100" height="100" rx="5" fill="white"/>
<rect x="114" y="119" width="104" height="104" rx="7" stroke="#979797" stroke-opacity="0.5" stroke-width="4"/>
<path fill-rule="evenodd" clip-rule="evenodd" d="M196 152.25C196 150 194.593 148.23 192.937 146.97C191.254 145.68 188.956 144.6 186.316 143.76C181.015 142.02 173.833 141 166 141C158.167 141 150.985 142.02 145.684 143.76C143.044 144.6 140.746 145.68 139.063 146.97C137.407 148.23 136 150 136 152.25V189.48C136 191.73 137.362 193.53 139.018 194.85C140.698 196.2 142.993 197.28 145.63 198.18C150.928 199.95 158.119 201 166 201C173.881 201 181.072 199.95 186.37 198.18C189.007 197.28 191.302 196.2 192.982 194.85C194.638 193.53 196 191.73 196 189.48V152.25ZM141.799 150.54C140.644 151.41 140.5 152.01 140.5 152.25C140.5 152.49 140.644 153.09 141.799 153.96C142.921 154.83 144.688 155.7 147.073 156.48C151.813 158.01 158.506 159 166 159C173.494 159 180.187 158.01 184.927 156.48C187.312 155.7 189.079 154.83 190.201 153.96C191.356 153.09 191.5 152.49 191.5 152.25C191.5 152.01 191.356 151.41 190.201 150.54C189.079 149.67 187.312 148.8 184.927 148.02C180.187 146.49 173.494 145.5 166 145.5C158.506 145.5 151.813 146.49 147.073 148.02C144.688 148.8 142.921 149.67 141.799 150.54ZM191.5 158.49C190.03 159.36 188.266 160.11 186.316 160.74C181.015 162.48 173.833 163.5 166 163.5C158.167 163.5 150.985 162.48 145.684 160.74C143.734 160.11 141.97 159.36 140.5 158.49V170.25C140.5 170.49 140.647 171.09 141.793 171.99C142.906 172.83 144.661 173.7 147.04 174.48C151.768 176.01 158.458 177 166 177C173.542 177 180.232 176.01 184.96 174.48C187.339 173.7 189.094 172.83 190.207 171.99C191.353 171.09 191.5 170.49 191.5 170.25V158.49ZM191.5 176.52C190.039 177.39 188.29 178.14 186.352 178.77C181.06 180.48 173.875 181.5 166 181.5C158.125 181.5 150.94 180.48 145.648 178.77C143.71 178.14 141.961 177.39 140.5 176.52V189.48C140.5 189.78 140.68 190.44 141.817 191.34C142.93 192.21 144.685 193.11 147.058 193.92C151.78 195.48 158.464 196.5 166 196.5C173.536 196.5 180.22 195.48 184.942 193.92C187.315 193.11 189.07 192.21 190.183 191.34C191.32 190.44 191.5 189.78 191.5 189.48V176.52Z" fill="#000001"/>
<path d="M270 235.25C270.517 235.25 270.938 235.59 270.938 236V238C270.938 238.41 270.517 238.75 270 238.75C269.483 238.75 269.062 238.41 269.062 238V236C269.062 235.59 269.483 235.25 270 235.25Z" fill="#FF0000"/>
<path fill-rule="evenodd" clip-rule="evenodd" d="M262.5 229.1V225.75C262.5 224.21 263.301 222.75 264.713 221.67C266.123 220.6 268.025 220 270 220C271.975 220 273.878 220.6 275.288 221.67C276.699 222.75 277.5 224.21 277.5 225.75V229.1C278.942 229.43 280 230.49 280 231.75V239.25C280 240.77 278.461 242 276.562 242H263.438C261.539 242 260 240.77 260 239.25V231.75C260 230.49 261.058 229.43 262.5 229.1ZM266.006 222.76C267.058 221.96 268.494 221.5 270 221.5C271.506 221.5 272.942 221.96 273.994 222.76C275.044 223.56 275.625 224.63 275.625 225.75V229H264.375V225.75C264.375 224.63 264.956 223.56 266.006 222.76ZM276.562 230.5H263.438C262.575 230.5 261.875 231.06 261.875 231.75V239.25C261.875 239.94 262.575 240.5 263.438 240.5H276.562C277.425 240.5 278.125 239.94 278.125 239.25V231.75C278.125 231.06 277.425 230.5 276.562 230.5Z" fill="#FF0000"/>
<rect x="275" y="226" width="3" height="3" fill="white"/>
</svg>
