<svg width="300" height="75" viewBox="0 0 300 75" fill="none" xmlns="http://www.w3.org/2000/svg">
<rect width="300" height="75" fill="white"/>
<path d="M281 14H282.5V11H281V14ZM21 12.5L36 21.1603V3.83975L21 12.5ZM281 11H34.5V14H281V11Z" fill="#979797"/>
<path d="M84.7639 47.5C83.9129 47.5 83.2222 48.1955 83.2222 49.0341C83.2222 49.8727 83.9129 50.5682 84.7639 50.5682H101.208C102.059 50.5682 102.75 49.8727 102.75 49.0341C102.75 48.1955 102.059 47.5 101.208 47.5H84.7639Z" fill="#000001"/>
<path d="M83.2222 57.2159C83.2222 56.3773 83.9129 55.6818 84.7639 55.6818H97.0972C97.9482 55.6818 98.6389 56.3773 98.6389 57.2159C98.6389 58.0546 97.9482 58.75 97.0972 58.75H84.7639C83.9129 58.75 83.2222 58.0546 83.2222 57.2159Z" fill="#000001"/>
<path d="M84.7639 39.3182C83.9129 39.3182 83.2222 40.0136 83.2222 40.8523C83.2222 41.6909 83.9129 42.3864 84.7639 42.3864H88.875C89.726 42.3864 90.4167 41.6909 90.4167 40.8523C90.4167 40.0136 89.726 39.3182 88.875 39.3182H84.7639Z" fill="#000001"/>
<path fill-rule="evenodd" clip-rule="evenodd" d="M75 30.625C75 27.5159 77.5304 25 80.6528 25H96.2462C97.2 25 98.1147 25.3682 98.7889 26.0432L110.945 38.1523C111.622 38.8068 112 39.7273 112 40.6682V64.375C112 67.4841 109.47 70 106.347 70H80.6528C77.5304 70 75 67.4841 75 64.375V30.625ZM80.6528 28.0682C79.2344 28.0682 78.0833 29.2136 78.0833 30.625V64.375C78.0833 65.7864 79.2344 66.9318 80.6528 66.9318H106.347C107.766 66.9318 108.917 65.7864 108.917 64.375V41.3636H97.0972C96.2462 41.3636 95.5556 40.6682 95.5556 39.8295V28.0682H80.6528ZM98.6389 30.2364L106.736 38.2955H98.6389V30.2364Z" fill="#000001"/>
<path d="M142.764 47.5C141.913 47.5 141.222 48.1955 141.222 49.0341C141.222 49.8727 141.913 50.5682 142.764 50.5682H159.208C160.059 50.5682 160.75 49.8727 160.75 49.0341C160.75 48.1955 160.059 47.5 159.208 47.5H142.764Z" fill="#000001"/>
<path d="M141.222 57.2159C141.222 56.3773 141.913 55.6818 142.764 55.6818H155.097C155.948 55.6818 156.639 56.3773 156.639 57.2159C156.639 58.0546 155.948 58.75 155.097 58.75H142.764C141.913 58.75 141.222 58.0546 141.222 57.2159Z" fill="#000001"/>
<path d="M142.764 39.3182C141.913 39.3182 141.222 40.0136 141.222 40.8523C141.222 41.6909 141.913 42.3864 142.764 42.3864H146.875C147.726 42.3864 148.417 41.6909 148.417 40.8523C148.417 40.0136 147.726 39.3182 146.875 39.3182H142.764Z" fill="#000001"/>
<path fill-rule="evenodd" clip-rule="evenodd" d="M133 30.625C133 27.5159 135.53 25 138.653 25H154.246C155.2 25 156.115 25.3682 156.789 26.0432L168.945 38.1523C169.622 38.8068 170 39.7273 170 40.6682V64.375C170 67.4841 167.47 70 164.347 70H138.653C135.53 70 133 67.4841 133 64.375V30.625ZM138.653 28.0682C137.234 28.0682 136.083 29.2136 136.083 30.625V64.375C136.083 65.7864 137.234 66.9318 138.653 66.9318H164.347C165.766 66.9318 166.917 65.7864 166.917 64.375V41.3636H155.097C154.246 41.3636 153.556 40.6682 153.556 39.8295V28.0682H138.653ZM156.639 30.2364L164.736 38.2955H156.639V30.2364Z" fill="#000001"/>
<path d="M198.764 47.5C197.913 47.5 197.222 48.1955 197.222 49.0341C197.222 49.8727 197.913 50.5682 198.764 50.5682H215.208C216.059 50.5682 216.75 49.8727 216.75 49.0341C216.75 48.1955 216.059 47.5 215.208 47.5H198.764Z" fill="#000001"/>
<path d="M197.222 57.2159C197.222 56.3773 197.913 55.6818 198.764 55.6818H211.097C211.948 55.6818 212.639 56.3773 212.639 57.2159C212.639 58.0546 211.948 58.75 211.097 58.75H198.764C197.913 58.75 197.222 58.0546 197.222 57.2159Z" fill="#000001"/>
<path d="M198.764 39.3182C197.913 39.3182 197.222 40.0136 197.222 40.8523C197.222 41.6909 197.913 42.3864 198.764 42.3864H202.875C203.726 42.3864 204.417 41.6909 204.417 40.8523C204.417 40.0136 203.726 39.3182 202.875 39.3182H198.764Z" fill="#000001"/>
<path fill-rule="evenodd" clip-rule="evenodd" d="M189 30.625C189 27.5159 191.53 25 194.653 25H210.246C211.2 25 212.115 25.3682 212.789 26.0432L224.945 38.1523C225.622 38.8068 226 39.7273 226 40.6682V64.375C226 67.4841 223.47 70 220.347 70H194.653C191.53 70 189 67.4841 189 64.375V30.625ZM194.653 28.0682C193.234 28.0682 192.083 29.2136 192.083 30.625V64.375C192.083 65.7864 193.234 66.9318 194.653 66.9318H220.347C221.766 66.9318 222.917 65.7864 222.917 64.375V41.3636H211.097C210.246 41.3636 209.556 40.6682 209.556 39.8295V28.0682H194.653ZM212.639 30.2364L220.736 38.2955H212.639V30.2364Z" fill="#000001"/>
</svg>
