<svg width="225" height="150" viewBox="0 0 225 150" fill="none" xmlns="http://www.w3.org/2000/svg">
<g clip-path="url(#clip0_0_1145)">
<rect width="225" height="150" fill="white"/>
<path d="M0.5 75.5H226.5" stroke="#979797" stroke-opacity="0.5" stroke-width="3" stroke-linecap="square"/>
<circle cx="113" cy="75" r="20" fill="white" stroke="#979797" stroke-opacity="0.5" stroke-width="3" stroke-linecap="square"/>
<path d="M112.5 53.5V1.5" stroke="#979797" stroke-opacity="0.5" stroke-width="3" stroke-linecap="square"/>
<path d="M110.738 73.0039H112.543C113.121 73.0039 113.598 72.9062 113.973 72.7109C114.348 72.5078 114.625 72.2266 114.805 71.8672C114.992 71.5 115.086 71.0742 115.086 70.5898C115.086 70.1523 115 69.7656 114.828 69.4297C114.664 69.0859 114.41 68.8203 114.066 68.6328C113.723 68.4375 113.289 68.3398 112.766 68.3398C112.352 68.3398 111.969 68.4219 111.617 68.5859C111.266 68.75 110.984 68.9805 110.773 69.2773C110.562 69.5742 110.457 69.9336 110.457 70.3555H107.07C107.07 69.418 107.32 68.6016 107.82 67.9062C108.328 67.2109 109.008 66.668 109.859 66.2773C110.711 65.8867 111.648 65.6914 112.672 65.6914C113.828 65.6914 114.84 65.8789 115.707 66.2539C116.574 66.6211 117.25 67.1641 117.734 67.8828C118.219 68.6016 118.461 69.4922 118.461 70.5547C118.461 71.0938 118.336 71.6172 118.086 72.125C117.836 72.625 117.477 73.0781 117.008 73.4844C116.547 73.8828 115.984 74.2031 115.32 74.4453C114.656 74.6797 113.91 74.7969 113.082 74.7969H110.738V73.0039ZM110.738 75.5703V73.8242H113.082C114.012 73.8242 114.828 73.9297 115.531 74.1406C116.234 74.3516 116.824 74.6562 117.301 75.0547C117.777 75.4453 118.137 75.9102 118.379 76.4492C118.621 76.9805 118.742 77.5703 118.742 78.2188C118.742 79.0156 118.59 79.7266 118.285 80.3516C117.98 80.9688 117.551 81.4922 116.996 81.9219C116.449 82.3516 115.809 82.6797 115.074 82.9062C114.34 83.125 113.539 83.2344 112.672 83.2344C111.953 83.2344 111.246 83.1367 110.551 82.9414C109.863 82.7383 109.238 82.4375 108.676 82.0391C108.121 81.6328 107.676 81.125 107.34 80.5156C107.012 79.8984 106.848 79.168 106.848 78.3242H110.234C110.234 78.7617 110.344 79.1523 110.562 79.4961C110.781 79.8398 111.082 80.1094 111.465 80.3047C111.855 80.5 112.289 80.5977 112.766 80.5977C113.305 80.5977 113.766 80.5 114.148 80.3047C114.539 80.1016 114.836 79.8203 115.039 79.4609C115.25 79.0938 115.355 78.668 115.355 78.1836C115.355 77.5586 115.242 77.0586 115.016 76.6836C114.789 76.3008 114.465 76.0195 114.043 75.8398C113.621 75.6602 113.121 75.5703 112.543 75.5703H110.738Z" fill="black"/>
</g>
<defs>
<clipPath id="clip0_0_1145">
<rect width="225" height="150" fill="white"/>
</clipPath>
</defs>
</svg>
