<svg width="225" height="150" viewBox="0 0 225 150" fill="none" xmlns="http://www.w3.org/2000/svg">
<g clip-path="url(#clip0_0_1150)">
<rect width="225" height="150" fill="white"/>
<path d="M-0.5 75.5H225.5" stroke="#979797" stroke-opacity="0.5" stroke-width="3" stroke-linecap="square"/>
<circle cx="113" cy="75" r="20" fill="white" stroke="#979797" stroke-opacity="0.5" stroke-width="3" stroke-linecap="square"/>
<path d="M112.5 150.5V95.5" stroke="#979797" stroke-opacity="0.5" stroke-width="3" stroke-linecap="square"/>
<path d="M118.953 80.3633V83H107.281V80.75L112.801 74.832C113.355 74.2148 113.793 73.6719 114.113 73.2031C114.434 72.7266 114.664 72.3008 114.805 71.9258C114.953 71.543 115.027 71.1797 115.027 70.8359C115.027 70.3203 114.941 69.8789 114.77 69.5117C114.598 69.1367 114.344 68.8477 114.008 68.6445C113.68 68.4414 113.273 68.3398 112.789 68.3398C112.273 68.3398 111.828 68.4648 111.453 68.7148C111.086 68.9648 110.805 69.3125 110.609 69.7578C110.422 70.2031 110.328 70.707 110.328 71.2695H106.941C106.941 70.2539 107.184 69.3242 107.668 68.4805C108.152 67.6289 108.836 66.9531 109.719 66.4531C110.602 65.9453 111.648 65.6914 112.859 65.6914C114.055 65.6914 115.062 65.8867 115.883 66.2773C116.711 66.6602 117.336 67.2148 117.758 67.9414C118.188 68.6602 118.402 69.5195 118.402 70.5195C118.402 71.082 118.312 71.6328 118.133 72.1719C117.953 72.7031 117.695 73.2344 117.359 73.7656C117.031 74.2891 116.633 74.8203 116.164 75.3594C115.695 75.8984 115.176 76.457 114.605 77.0352L111.641 80.3633H118.953Z" fill="black"/>
</g>
<defs>
<clipPath id="clip0_0_1150">
<rect width="225" height="150" fill="white"/>
</clipPath>
</defs>
</svg>
