<?xml version="1.0" encoding="UTF-8" standalone="no"?>
<!DOCTYPE svg PUBLIC "-//W3C//DTD SVG 1.1//EN" "http://www.w3.org/Graphics/SVG/1.1/DTD/svg11.dtd">
<svg width="100%" height="100%" viewBox="0 0 417 417" version="1.1"
    xmlns="http://www.w3.org/2000/svg"
    xmlns:xlink="http://www.w3.org/1999/xlink" xml:space="preserve"
    xmlns:serif="http://www.serif.com/" style="fill-rule:evenodd;clip-rule:evenodd;stroke-linejoin:round;stroke-miterlimit:2;">
    <path d="M-0,0l207.56,416.667l209.107,-416.667l-416.667,0Zm232.054,83.797l24.173,0l-0,23.979l-24.173,0l0,-23.979Zm-48.086,96.69l-23.915,-0l0,-24.366l24.108,0l-0.193,24.366Zm-0,-36.226l-23.915,-0l0,-24.366l24.108,-0l-0.193,24.366Zm-0,-36.227l-23.915,0l0,-24.365l24.108,-0l-0.193,24.365Zm36.226,108.744l-23.915,-0l0,-24.431l24.108,0l-0.193,24.431Zm-0,-36.291l-23.915,-0l0,-24.366l24.108,0l-0.193,24.366Zm-0,-36.226l-23.915,-0l0,-24.366l24.108,-0l-0.193,24.366Zm-0,-36.227l-23.915,0l0,-24.365l24.108,-0l-0.193,24.365Zm11.86,11.861l24.173,-0l-0,24.108l-24.173,-0l0,-24.108Zm0,60.334l0,-24.108l24.108,0l0,24.108l-24.108,-0Z" style="fill:#000;fill-rule:nonzero;" />
</svg>